<svg width="100" height="100" viewBox="0 0 100 100" fill="none" xmlns="http://www.w3.org/2000/svg">
<path fill-rule="evenodd" clip-rule="evenodd" d="M48.9577 18.75C48.5785 18.75 47.6452 18.8542 47.1493 19.8458L39.541 35.0583C38.3368 37.4625 36.016 39.1333 33.3327 39.5167L16.2993 41.9708C15.1743 42.1333 14.791 42.9667 14.6743 43.3167C14.5702 43.6542 14.4035 44.5125 15.1785 45.2542L27.4952 57.0875C29.4577 58.975 30.3493 61.6958 29.8827 64.3583L26.9827 81.0667C26.8035 82.1125 27.4577 82.7208 27.7493 82.9292C28.0577 83.1625 28.8827 83.625 29.9035 83.0917L45.1327 75.1958C47.5327 73.9583 50.391 73.9583 52.7827 75.1958L68.0077 83.0875C69.0327 83.6167 69.8577 83.1542 70.1702 82.9292C70.4618 82.7208 71.116 82.1125 70.9368 81.0667L68.0285 64.3583C67.5618 61.6958 68.4535 58.975 70.416 57.0875L82.7327 45.2542C83.5118 44.5125 83.3452 43.65 83.2368 43.3167C83.1243 42.9667 82.741 42.1333 81.616 41.9708L64.5827 39.5167C61.9035 39.1333 59.5827 37.4625 58.3785 35.0542L50.7618 19.8458C50.2702 18.8542 49.3368 18.75 48.9577 18.75ZM28.9452 89.5833C27.2243 89.5833 25.516 89.0417 24.0535 87.975C21.5285 86.125 20.291 83.0708 20.8285 79.9958L23.7285 63.2875C23.8368 62.6667 23.6243 62.0375 23.166 61.5958L10.8493 49.7625C8.58266 47.5917 7.77016 44.3833 8.72849 41.4042C9.69516 38.3917 12.2535 36.2375 15.4077 35.7875L32.441 33.3333C33.0993 33.2417 33.666 32.8375 33.9493 32.2625L41.5618 17.0458C42.966 14.2417 45.7993 12.5 48.9577 12.5C52.116 12.5 54.9493 14.2417 56.3535 17.0458L63.9702 32.2583C64.2577 32.8375 64.8202 33.2417 65.4743 33.3333L82.5077 35.7875C85.6618 36.2375 88.2202 38.3917 89.1868 41.4042C90.1452 44.3833 89.3285 47.5917 87.0618 49.7625L74.7452 61.5958C74.2868 62.0375 74.0785 62.6667 74.1868 63.2833L77.091 79.9958C77.6243 83.075 76.3868 86.1292 73.8577 87.975C71.2952 89.8542 67.9577 90.1083 65.1285 88.6333L49.9077 80.7458C49.3118 80.4375 48.5993 80.4375 48.0035 80.7458L32.7827 88.6375C31.566 89.2708 30.2535 89.5833 28.9452 89.5833Z" fill="#00DFD9"/>
</svg>
