<svg width="80" height="100" viewBox="0 0 80 100" fill="none" xmlns="http://www.w3.org/2000/svg">
<path fill-rule="evenodd" clip-rule="evenodd" d="M40.0196 0C25.3495 0 13.457 11.9432 13.457 26.6759C13.457 41.4085 25.3495 53.3517 40.0196 53.3517C54.6898 53.3517 66.5823 41.4085 66.5823 26.6759C66.5823 11.9432 54.6898 0 40.0196 0ZM40.0191 7.23816C50.7085 7.23816 59.3741 15.9406 59.3741 26.6757C59.3741 37.4107 50.7085 46.1132 40.0191 46.1132C29.3296 46.1132 20.6641 37.4107 20.6641 26.6757C20.6641 15.9406 29.3296 7.23816 40.0191 7.23816ZM29.1503 64.1043C25.2617 64.3743 21.331 64.9294 17.454 65.7603C9.97088 67.3017 3.98426 70.3814 1.43619 75.4993C0.475137 77.5008 -0.00805165 79.6438 0.000101475 81.8135C-0.00278171 83.9675 0.476495 86.1133 1.40309 88.0763C3.84972 93.1353 9.13902 95.9982 16.2812 97.5852L17.5606 97.8522C21.3324 98.7032 25.2642 99.2761 29.2223 99.5451C29.5594 99.6439 30.3629 99.7358 31.2398 99.7806L31.9611 99.8076C32.332 99.8162 32.7529 99.8184 33.38 99.8184C39.0692 100.131 44.9671 100.04 50.8376 99.5404C53.966 99.3264 57.1155 98.9173 60.2387 98.3178L62.5754 97.8327C70.2878 96.3112 76.0629 93.4178 78.593 88.082C80.4687 84.1204 80.4687 79.5234 78.5938 75.5636C76.0701 70.2412 70.3685 67.3718 62.5168 65.7544C59.4363 65.0967 56.306 64.6101 53.1534 64.2993L50.8485 64.1043C43.6297 63.4675 36.3691 63.4675 29.1503 64.1043ZM50.2172 71.3147L50.2806 71.3197C53.8988 71.5744 57.495 72.0822 61.0428 72.8396C66.8749 74.0411 70.8328 76.0329 72.0849 78.6736C73.0277 80.6648 73.0277 82.9786 72.0841 84.9716C70.9141 87.439 67.3594 89.3453 62.2218 90.5103L61.0969 90.7485C57.4794 91.5557 53.8951 92.0759 50.2872 92.3232C44.6891 92.7993 39.1242 92.8853 33.5733 92.585L31.6053 92.5513C31.0589 92.5235 30.5985 92.4708 30.1718 92.3851C26.793 92.13 23.7527 91.7266 20.8008 91.1414L19.0382 90.7682C13.188 89.6216 9.19518 87.6212 7.90062 84.9445C7.44763 83.9845 7.20567 82.9012 7.20711 81.8044C7.20306 80.7138 7.44183 79.6547 7.90534 78.689C9.16406 76.1617 13.3954 73.9849 18.9297 72.8449C22.5031 72.0792 26.0975 71.5715 29.7141 71.3199C36.5796 70.7149 43.418 70.7149 50.2172 71.3147Z" fill="white"/>
</svg>
