<svg width="20" height="20" viewBox="0 0 20 20" fill="none" xmlns="http://www.w3.org/2000/svg">
<path fill-rule="evenodd" clip-rule="evenodd" d="M9.61154 0C4.30323 0 0 4.20819 0 9.39926C0 14.5903 4.30323 18.7985 9.61154 18.7985C11.8818 18.7985 13.9682 18.0288 15.6127 16.7417L18.7366 19.7886L18.8197 19.8586C19.1097 20.0685 19.5209 20.0446 19.7834 19.7873C20.0721 19.5042 20.0715 19.0459 19.782 18.7636L16.695 15.7525C18.2649 14.0796 19.2231 11.8488 19.2231 9.39926C19.2231 4.20819 14.9198 0 9.61154 0ZM9.61138 1.44773C14.1021 1.44773 17.7425 5.00775 17.7425 9.39925C17.7425 13.7908 14.1021 17.3508 9.61138 17.3508C5.12069 17.3508 1.48027 13.7908 1.48027 9.39925C1.48027 5.00775 5.12069 1.44773 9.61138 1.44773Z" fill="#BDBDBD"/>
</svg>
