<svg width="20" height="21" viewBox="0 0 20 21" fill="none" xmlns="http://www.w3.org/2000/svg">
<path fill-rule="evenodd" clip-rule="evenodd" d="M10 0.5C4.47716 0.5 0 4.97716 0 10.5C0 16.0228 4.47716 20.5 10 20.5C15.5228 20.5 20 16.0228 20 10.5C20 4.97716 15.5228 0.5 10 0.5ZM10 1.89535C14.7522 1.89535 18.6047 5.74779 18.6047 10.5C18.6047 15.2522 14.7522 19.1047 10 19.1047C5.24779 19.1047 1.39535 15.2522 1.39535 10.5C1.39535 5.74779 5.24779 1.89535 10 1.89535ZM8.87145 6.55454L8.7674 6.54465C8.57034 6.53789 8.36707 6.58735 8.18787 6.68402C7.95592 6.80819 7.76869 7.00941 7.66488 7.25855C7.61716 7.37387 7.53465 7.72989 7.49754 7.93665C7.40435 8.44479 7.35014 9.22626 7.34096 10.0838L7.33957 10.3723C7.33859 11.2822 7.38883 12.1482 7.48166 12.7189L7.53256 12.9811C7.58323 13.2141 7.65054 13.4626 7.70449 13.5673C7.91027 13.9649 8.32891 14.2104 8.77382 14.1963C8.96356 14.1921 9.36218 14.0596 9.63938 13.9432C10.6376 13.5232 12.3957 12.3463 13.208 11.5528L13.4777 11.272C13.581 11.1617 13.6275 11.1104 13.6668 11.0567C13.8137 10.857 13.8903 10.6158 13.8903 10.3715C13.8903 10.112 13.8048 9.85868 13.6418 9.65198L13.5621 9.55983L13.3385 9.32111C12.5715 8.50364 10.5645 7.15585 9.53924 6.7575C9.31374 6.66839 9.05946 6.58299 8.87145 6.55454ZM8.90601 8.01163L9.03016 8.05666C9.81662 8.36225 11.4854 9.46984 12.1974 10.1515L12.4093 10.3698L12.329 10.4564C11.7353 11.0965 9.98215 12.2852 9.09882 12.6568L8.90694 12.727L8.85847 12.4922C8.78892 12.0646 8.74468 11.3877 8.73634 10.651L8.73492 10.3723C8.7341 9.56877 8.77514 8.81898 8.84583 8.33642L8.87978 8.13757L8.90601 8.01163Z" fill="white"/>
</svg>
