<svg width="100" height="100" viewBox="0 0 100 100" fill="none" xmlns="http://www.w3.org/2000/svg">
<path fill-rule="evenodd" clip-rule="evenodd" d="M49.9795 72.6109C48.2545 72.6109 46.8545 71.2109 46.8545 69.4859V58.915C46.8545 57.19 48.2545 55.79 49.9795 55.79C51.7045 55.79 53.1045 57.19 53.1045 58.915V69.4859C53.1045 71.2109 51.7045 72.6109 49.9795 72.6109Z" fill="#00DFD9"/>
<mask id="mask0_386_2855" style="mask-type:luminance" maskUnits="userSpaceOnUse" x="8" y="19" width="84" height="44">
<path fill-rule="evenodd" clip-rule="evenodd" d="M8.33398 19.083H91.6248V62.0455H8.33398V19.083Z" fill="white"/>
</mask>
<g mask="url(#mask0_386_2855)">
<path fill-rule="evenodd" clip-rule="evenodd" d="M14.584 47.4705C24.484 52.8497 36.9673 55.7955 49.959 55.7955C62.9756 55.7955 75.4715 52.8497 85.3756 47.4705V34.9622C85.3756 29.6497 81.0798 25.333 75.7923 25.333H24.209C18.9007 25.333 14.584 29.633 14.584 34.9205V47.4705ZM49.959 62.0455C35.1881 62.0455 20.9507 58.4705 9.87982 51.9872C8.92148 51.4288 8.33398 50.4038 8.33398 49.2913V34.9205C8.33398 26.1872 15.4548 19.083 24.209 19.083H75.7923C84.5257 19.083 91.6256 26.2038 91.6256 34.9622V49.2913C91.6256 50.4038 91.034 51.4288 90.0798 51.9872C79.009 58.4705 64.759 62.0455 49.959 62.0455Z" fill="#00DFD9"/>
</g>
<mask id="mask1_386_2855" style="mask-type:luminance" maskUnits="userSpaceOnUse" x="32" y="8" width="36" height="18">
<path fill-rule="evenodd" clip-rule="evenodd" d="M32.2715 8.33398H67.6882V25.3169H32.2715V8.33398Z" fill="white"/>
</mask>
<g mask="url(#mask1_386_2855)">
<path fill-rule="evenodd" clip-rule="evenodd" d="M64.5632 25.3168C62.8382 25.3168 61.4382 23.9168 61.4382 22.1918V20.6668C61.4382 17.3127 58.709 14.5835 55.3548 14.5835H44.6048C41.2507 14.5835 38.5215 17.3127 38.5215 20.6668V22.1918C38.5215 23.9168 37.1215 25.3168 35.3965 25.3168C33.6715 25.3168 32.2715 23.9168 32.2715 22.1918V20.6668C32.2715 13.8668 37.8048 8.3335 44.6048 8.3335H55.3548C62.1548 8.3335 67.6882 13.8668 67.6882 20.6668V22.1918C67.6882 23.9168 66.2882 25.3168 64.5632 25.3168Z" fill="#00DFD9"/>
</g>
<path fill-rule="evenodd" clip-rule="evenodd" d="M74.1457 90.5841H25.8124C17.1665 90.5841 9.88735 83.83 9.23319 75.205L8.44152 64.7508C8.31235 63.03 9.60402 61.5258 11.3249 61.3966C13.054 61.3341 14.5457 62.555 14.679 64.28L15.4665 74.73C15.8749 80.1133 20.4165 84.3341 25.8124 84.3341H74.1457C79.5415 84.3341 84.0873 80.1133 84.4915 74.73L85.2832 64.28C85.4165 62.555 86.9457 61.33 88.6373 61.3966C90.3582 61.5258 91.6457 63.03 91.5165 64.7508L90.7249 75.205C90.0707 83.83 82.7915 90.5841 74.1457 90.5841Z" fill="#00DFD9"/>
</svg>
