<svg width="20" height="19" viewBox="0 0 20 19" fill="none" xmlns="http://www.w3.org/2000/svg">
<path fill-rule="evenodd" clip-rule="evenodd" d="M3.421 18.2C3.685 18.693 4.2 19.001 4.76 19C4.996 19.001 5.23 18.946 5.44 18.84L9.992 16.46C10.004 16.453 10.018 16.449 10.032 16.45L14.553 18.81C14.772 18.928 15.017 18.989 15.265 18.988C15.344 18.988 15.424 18.981 15.502 18.97C16.316 18.837 16.872 18.075 16.752 17.26L15.872 12.25C15.8671 12.2429 15.8656 12.2424 15.8652 12.2416C15.865 12.2412 15.865 12.2409 15.865 12.24C15.865 12.237 15.872 12.23 15.872 12.23L19.542 8.68C20.084 8.157 20.153 7.314 19.702 6.71C19.457 6.394 19.098 6.186 18.702 6.13L13.64 5.4C13.631 5.4 13.621 5.39 13.611 5.38L11.35 0.84C11.095 0.327 10.573 0.003 10 0C9.834 0 9.668 0.026 9.51 0.08C9.131 0.209 8.818 0.481 8.64 0.84L6.382 5.367C6.382 5.388 6.361 5.397 6.341 5.397L1.291 6.127C0.982 6.179 0.694 6.317 0.461 6.527C0.166 6.816 0 7.213 0 7.627C0.001 8.02 0.159 8.396 0.44 8.67L4.14 12.23C4.148 12.238 4.151 12.249 4.151 12.26L3.26 17.25C3.207 17.576 3.264 17.91 3.421 18.2ZM9.971 1.467L9.981 1.46H10L10.009 1.469C10.018 1.469 10.026 1.471 10.033 1.477C10.039 1.483 10.042 1.491 10.041 1.5L12.301 6.019C12.518 6.464 12.94 6.774 13.43 6.849L18.492 7.585C18.501 7.585 18.51 7.587 18.518 7.591C18.523 7.592 18.527 7.592 18.532 7.591L18.542 7.6L18.532 7.622L14.862 11.181C14.497 11.523 14.334 12.029 14.431 12.52L15.312 17.501L15.292 17.52H15.271C15.267 17.522 15.263 17.522 15.259 17.52C15.249 17.519 15.239 17.515 15.23 17.51H15.221L10.721 15.16C10.505 15.048 10.265 14.988 10.021 14.989C9.77 14.989 9.522 15.052 9.3 15.17L4.771 17.545C4.766 17.546 4.76 17.546 4.755 17.545C4.734 17.545 4.716 17.531 4.711 17.511V17.491L5.591 12.511C5.673 12.024 5.513 11.527 5.161 11.181L1.461 7.631C1.46 7.616 1.462 7.603 1.47 7.59L1.531 7.57L6.561 6.849C7.051 6.773 7.472 6.464 7.69 6.019L9.951 1.489C9.956 1.48 9.962 1.472 9.971 1.467Z" fill="black"/>
</svg>
