<svg width="20" height="20" viewBox="0 0 20 20" fill="none" xmlns="http://www.w3.org/2000/svg">
<circle cx="10" cy="10" r="10" fill="#D9D9D9"/>
<path fill-rule="evenodd" clip-rule="evenodd" d="M8.7037 7.19444C8.7037 6.37635 9.37697 5.7037 10.2055 5.7037C11.0219 5.7037 11.6852 6.36648 11.6852 7.17238C11.6852 7.60825 11.4916 8.02161 11.1567 8.30065L10.7139 8.66966C9.71005 9.50621 9.12963 10.7454 9.12963 12.0522V12.5185C9.12963 12.989 9.51101 13.3704 9.98148 13.3704C10.4519 13.3704 10.8333 12.989 10.8333 12.5185V12.0522C10.8333 11.2511 11.1892 10.4913 11.8046 9.97848L12.2474 9.60947C12.9707 9.00674 13.3889 8.11388 13.3889 7.17238C13.3889 5.4151 11.9523 4 10.2055 4C8.44652 4 7 5.42498 7 7.19444V7.40741C7 7.87787 7.38139 8.25926 7.85185 8.25926C8.32232 8.25926 8.7037 7.87787 8.7037 7.40741V7.19444ZM9.98149 15.7037C10.452 15.7037 10.8333 15.3223 10.8333 14.8519C10.8333 14.3814 10.452 14 9.98149 14C9.51103 14 9.12964 14.3814 9.12964 14.8519C9.12964 15.3223 9.51103 15.7037 9.98149 15.7037Z" fill="black"/>
</svg>
