<svg width="46" height="46" viewBox="0 0 46 46" fill="none" xmlns="http://www.w3.org/2000/svg">
<path fill-rule="evenodd" clip-rule="evenodd" d="M41.1961 11.9574C40.9877 7.45815 37.275 3.87549 32.7241 3.87549H23.3631L22.9628 3.88474C18.4529 4.09358 14.8627 7.81344 14.8627 12.374V14.1622L14.8758 14.3573C14.971 15.0589 15.5724 15.5997 16.3002 15.5997C17.0941 15.5997 17.7377 14.9561 17.7377 14.1622V12.374L17.7472 12.0435C17.9182 9.09069 20.3659 6.75049 23.3631 6.75049H32.7241L33.0535 6.76C35.997 6.93048 38.3303 9.37042 38.3303 12.3567V33.7084L38.3208 34.0389C38.1497 36.9916 35.7005 39.3338 32.7049 39.3338H23.342L23.0128 39.3243C20.0714 39.1537 17.7377 36.7125 17.7377 33.7276V31.9221L17.7245 31.727C17.6293 31.0254 17.0279 30.4846 16.3002 30.4846C15.5062 30.4846 14.8627 31.1282 14.8627 31.9221V33.7276L14.8724 34.1384C15.0868 38.6308 18.7971 42.2088 23.342 42.2088H32.7049L33.105 42.1996C37.6136 41.9906 41.2053 38.2686 41.2053 33.7084V12.3567L41.1961 11.9574ZM23.6774 16.4384C24.1867 15.927 24.9852 15.879 25.5488 16.2954L25.7103 16.4342L31.3223 22.0232C31.8352 22.534 31.8818 23.3353 31.4622 23.8989L31.457 23.9049C31.4168 23.9583 31.3731 24.0088 31.326 24.056L31.3223 24.0603L25.7103 29.6493C25.1478 30.2095 24.2376 30.2077 23.6774 29.6451C23.1681 29.1338 23.1233 28.3351 23.542 27.7732L23.6815 27.6122L26.8264 24.4793H7.22876C6.43485 24.4793 5.79126 23.8357 5.79126 23.0418C5.79126 22.314 6.33205 21.7126 7.0337 21.6174L7.22876 21.6043H26.8259L23.6815 18.4713C23.1702 17.962 23.1221 17.1635 23.5385 16.5999L23.6774 16.4384Z" fill="#FF776B"/>
</svg>
