<svg width="130" height="100" viewBox="0 0 130 100" fill="none" xmlns="http://www.w3.org/2000/svg">
<path fill-rule="evenodd" clip-rule="evenodd" d="M64.8781 0C49.8053 0 37.6983 12.107 37.6983 27.1799C37.6983 42.2572 49.8043 54.3652 64.8781 54.3652C79.952 54.3652 92.058 42.2572 92.058 27.1799C92.058 12.107 79.951 0 64.8781 0ZM64.8782 8.84714C75.0649 8.84714 83.2109 16.9932 83.2109 27.1799C83.2109 37.3713 75.0655 45.518 64.8782 45.518C54.6908 45.518 46.5454 37.3713 46.5454 27.1799C46.5454 16.9932 54.6914 8.84714 64.8782 8.84714ZM31.5687 5.55538C34.0118 5.55538 35.9923 7.53588 35.9923 9.97895C35.9923 12.422 34.0118 14.4025 31.5687 14.4025C24.5596 14.4025 18.875 20.0846 18.875 27.0908C18.875 34.097 24.5596 39.7791 31.5687 39.7791C34.0118 39.7791 35.9923 41.7596 35.9923 44.2026C35.9923 46.6457 34.0118 48.6262 31.5687 48.6262C19.6743 48.6262 10.0279 38.984 10.0279 27.0908C10.0279 15.1976 19.6743 5.55538 31.5687 5.55538ZM119.787 27.0908C119.787 15.1976 110.14 5.55538 98.2459 5.55538C95.8028 5.55538 93.8223 7.53588 93.8223 9.97895C93.8223 12.422 95.8028 14.4025 98.2459 14.4025C105.255 14.4025 110.94 20.0846 110.94 27.0908C110.94 34.097 105.255 39.7791 98.2459 39.7791C95.8028 39.7791 93.8223 41.7596 93.8223 44.2026C93.8223 46.6457 95.8028 48.6262 98.2459 48.6262C110.14 48.6262 119.787 38.984 119.787 27.0908ZM115.355 59.6738C112.523 59.0346 109.496 58.5976 106.418 58.3854C103.981 58.2173 101.869 60.0568 101.701 62.4941C101.533 64.9314 103.372 67.0434 105.81 67.2115C108.443 67.3932 111.024 67.7658 113.534 68.3306C117.436 69.0964 119.981 70.3658 120.612 71.689C121.087 72.6879 121.087 73.8624 120.608 74.8733C119.985 76.1833 117.461 77.4463 113.614 78.2374C111.221 78.7295 109.68 81.0683 110.172 83.4613C110.664 85.8543 113.003 87.3953 115.396 86.9032C121.755 85.5956 126.414 83.2638 128.599 78.6692C130.22 75.2531 130.22 71.2914 128.599 67.8842C126.398 63.2722 121.66 60.9081 115.355 59.6738ZM28.1129 62.4941C27.9448 60.0568 25.8328 58.2173 23.3955 58.3854C20.3179 58.5976 17.2912 59.0346 14.3376 59.6993L13.12 59.9569C7.53079 61.2339 3.26676 63.5808 1.22005 67.8836C-0.406968 71.2878 -0.406968 75.2567 1.22176 78.6728C3.39771 83.2625 8.05588 85.595 14.4178 86.9032C16.8108 87.3953 19.1496 85.8543 19.6417 83.4613C20.1338 81.0683 18.5928 78.7295 16.1998 78.2374C12.3537 77.4465 9.83304 76.1843 9.21183 74.874C8.72785 73.8589 8.72785 72.6915 9.20587 71.6913C9.8369 70.3647 12.3787 69.0961 16.1587 68.3561L18.1241 67.9538C20.0834 67.5914 22.029 67.3478 24.0042 67.2115C26.4415 67.0434 28.281 64.9314 28.1129 62.4941ZM24.9456 81.0816C24.9456 67.0091 39.5017 62.0603 64.8796 62.0603L66.6776 62.0686C90.9949 62.297 104.814 67.2573 104.814 80.9789C104.814 94.3776 91.6044 99.5079 68.4301 99.9661L64.8796 100C39.4435 100 24.9456 95.1384 24.9456 81.0816ZM95.9665 80.9789C95.9665 74.4288 85.4647 70.9074 64.8796 70.9074C44.3147 70.9074 33.7927 74.4847 33.7927 81.0816C33.7927 87.6324 44.2912 91.1531 64.8796 91.1531C85.4383 91.1531 95.9665 87.5726 95.9665 80.9789Z" fill="white"/>
</svg>
