<svg width="100" height="100" viewBox="0 0 100 100" fill="none" xmlns="http://www.w3.org/2000/svg">
<mask id="mask0_386_2857" style="mask-type:luminance" maskUnits="userSpaceOnUse" x="8" y="8" width="84" height="84">
<path fill-rule="evenodd" clip-rule="evenodd" d="M8.33398 8.33398H91.6787V91.6715H8.33398V8.33398Z" fill="white"/>
</mask>
<g mask="url(#mask0_386_2857)">
<path fill-rule="evenodd" clip-rule="evenodd" d="M45.6037 83.6476C48.062 86.0476 52.0203 86.0184 54.462 83.5643L57.4703 80.5643C59.8037 78.2351 63.0287 76.9059 66.3162 76.9059H70.6078C74.0828 76.9059 76.9078 74.0809 76.9078 70.6101V66.3226C76.9078 62.9851 78.1995 59.8476 80.5578 57.4851L83.5578 54.4809C84.7787 53.2559 85.4328 51.6684 85.4287 49.9851C85.4245 48.3059 84.762 46.7268 83.5662 45.5351L80.562 42.5268C78.1995 40.1476 76.9078 37.0143 76.9078 33.6768V29.3976C76.9078 25.9226 74.0828 23.0976 70.6078 23.0976H66.3245C62.987 23.0976 59.8495 21.8018 57.487 19.4559L54.4787 16.4434C51.9745 13.9643 47.9787 13.9768 45.5328 16.4393L42.537 19.4434C40.1453 21.8059 37.0078 23.0976 33.6828 23.0976H29.3953C25.9245 23.1018 23.0995 25.9268 23.0995 29.3976V33.6684C23.0995 37.0059 21.8037 40.1434 19.4537 42.5101L16.4953 45.4726C16.4662 45.5059 16.437 45.5309 16.4078 45.5601C13.962 48.0226 13.9745 52.0184 16.437 54.4643L19.4453 57.4726C21.8037 59.8393 23.0995 62.9768 23.0995 66.3143V70.6101C23.0995 74.0809 25.9203 76.9059 29.3953 76.9059H33.6745C37.0162 76.9101 40.1537 78.2059 42.5162 80.5601L45.5203 83.5559C45.5453 83.5851 45.5745 83.6143 45.6037 83.6476ZM49.9953 91.6726C46.7995 91.6726 43.6037 90.4643 41.1578 88.0393C41.1245 88.0059 41.0912 87.9726 41.0578 87.9351L38.0995 84.9809C36.9203 83.8101 35.3453 83.1601 33.6703 83.1559H29.3953C22.4745 83.1559 16.8495 77.5268 16.8495 70.6101V66.3143C16.8495 64.6393 16.1953 63.0684 15.0203 61.8851L12.0245 58.8934C7.15783 54.0518 7.09949 46.1684 11.8787 41.2518C11.9162 41.2143 11.9537 41.1768 11.9912 41.1393L15.0245 38.0976C16.1953 36.9184 16.8495 35.3393 16.8495 33.6684V29.3976C16.8495 22.4809 22.4745 16.8518 29.3912 16.8476H33.6828C35.3537 16.8476 36.9287 16.1934 38.1245 15.0143L41.1037 12.0268C45.9745 7.12261 53.937 7.09761 58.8495 11.9809L61.8953 15.0268C63.0745 16.1976 64.6495 16.8476 66.3245 16.8476H70.6078C77.5287 16.8476 83.1578 22.4768 83.1578 29.3976V33.6768C83.1578 35.3476 83.8078 36.9268 84.987 38.1143L87.9787 41.1101C90.3495 43.4643 91.6662 46.6101 91.6787 49.9643C91.6912 53.3184 90.3953 56.4726 88.0328 58.8518L84.9787 61.8976C83.8078 63.0768 83.1578 64.6476 83.1578 66.3226V70.6101C83.1578 77.5268 77.5287 83.1559 70.612 83.1559H66.3162C64.6662 83.1559 63.0537 83.8226 61.8828 84.9851L58.8912 87.9768C56.4453 90.4393 53.2203 91.6726 49.9953 91.6726Z" fill="#00DFD9"/>
</g>
<path fill-rule="evenodd" clip-rule="evenodd" d="M39.2929 63.8392C38.4929 63.8392 37.6929 63.5351 37.0846 62.9226C35.8637 61.7017 35.8637 59.7267 37.0846 58.5059L58.5012 37.0851C59.7221 35.8642 61.7012 35.8642 62.9221 37.0851C64.1429 38.3059 64.1429 40.2851 62.9221 41.5059L41.5012 62.9226C40.8929 63.5351 40.0929 63.8392 39.2929 63.8392Z" fill="#00DFD9"/>
<path fill-rule="evenodd" clip-rule="evenodd" d="M60.4316 64.5799C58.1275 64.5799 56.2441 62.7174 56.2441 60.4132C56.2441 58.1091 58.09 56.2466 60.3941 56.2466H60.4316C62.7358 56.2466 64.5983 58.1091 64.5983 60.4132C64.5983 62.7174 62.7358 64.5799 60.4316 64.5799Z" fill="#00DFD9"/>
<path fill-rule="evenodd" clip-rule="evenodd" d="M39.5977 43.7464C37.2935 43.7464 35.4102 41.8839 35.4102 39.5798C35.4102 37.2756 37.256 35.4131 39.5602 35.4131H39.5977C41.9018 35.4131 43.7643 37.2756 43.7643 39.5798C43.7643 41.8839 41.9018 43.7464 39.5977 43.7464Z" fill="#00DFD9"/>
</svg>
