<svg width="46" height="46" viewBox="0 0 46 46" fill="none" xmlns="http://www.w3.org/2000/svg">
<path fill-rule="evenodd" clip-rule="evenodd" d="M18.9317 3.83313C13.2784 3.83313 8.73886 8.372 8.73886 14.026C8.73886 19.6786 13.279 24.2188 18.9317 24.2188C24.5857 24.2188 29.1245 19.6792 29.1245 14.026C29.1245 8.37139 24.5863 3.83313 18.9317 3.83313ZM18.9317 6.70813C22.9984 6.70813 26.2495 9.95921 26.2495 14.026C26.2495 18.0915 22.9977 21.3438 18.9317 21.3438C14.8668 21.3438 11.6139 18.0908 11.6139 14.026C11.6139 9.95992 14.8661 6.70813 18.9317 6.70813ZM18.9317 27.7077C9.29084 27.7077 3.83411 29.5371 3.83411 34.7208C3.83411 39.9102 9.31505 41.7741 18.9317 41.7741L20.1651 41.7636C29.0344 41.6086 34.0293 39.718 34.0293 34.761C34.0293 29.6844 28.784 27.7903 19.553 27.7104L18.9317 27.7077ZM18.9317 30.5827C26.9845 30.5827 31.1543 32.0007 31.1543 34.761C31.1543 37.5042 26.9947 38.8991 18.9317 38.8991C10.8789 38.8991 6.70911 37.4811 6.70911 34.7208C6.70911 32.0506 10.6447 30.659 18.2863 30.5858L18.9317 30.5827ZM36.8079 15.1783C37.5356 15.1783 38.1371 15.7191 38.2322 16.4207L38.2454 16.6158V19.021H40.7292C41.5231 19.021 42.1667 19.6646 42.1667 20.4585C42.1667 21.1862 41.6259 21.7877 40.9242 21.8829L40.7292 21.896H38.2454V24.3016C38.2454 25.0955 37.6018 25.7391 36.8079 25.7391C36.0801 25.7391 35.4787 25.1983 35.3835 24.4967L35.3704 24.3016V21.896H32.89C32.0961 21.896 31.4525 21.2524 31.4525 20.4585C31.4525 19.7307 31.9933 19.1293 32.6949 19.0341L32.89 19.021H35.3704V16.6158C35.3704 15.8219 36.014 15.1783 36.8079 15.1783Z" fill="#FF776B"/>
</svg>
