<svg width="100" height="100" viewBox="0 0 100 100" fill="none" xmlns="http://www.w3.org/2000/svg">
<mask id="mask0_386_2858" style="mask-type:luminance" maskUnits="userSpaceOnUse" x="8" y="8" width="84" height="84">
<path fill-rule="evenodd" clip-rule="evenodd" d="M8.33301 8.3335H91.6659V91.6668H8.33301V8.3335Z" fill="white"/>
</mask>
<g mask="url(#mask0_386_2858)">
<path fill-rule="evenodd" clip-rule="evenodd" d="M31.933 14.5835C21.3955 14.5835 14.583 21.8043 14.583 32.9835V67.0168C14.583 78.196 21.3955 85.4168 31.933 85.4168H68.0497C78.5997 85.4168 85.4163 78.196 85.4163 67.0168V32.9835C85.4163 21.8043 78.5997 14.5835 68.058 14.5835H31.933ZM68.0497 91.6668H31.933C17.8163 91.6668 8.33301 81.7585 8.33301 67.0168V32.9835C8.33301 18.2418 17.8163 8.3335 31.933 8.3335H68.058C82.1788 8.3335 91.6663 18.2418 91.6663 32.9835V67.0168C91.6663 81.7585 82.1788 91.6668 68.0497 91.6668Z" fill="#00DFD9"/>
</g>
<path fill-rule="evenodd" clip-rule="evenodd" d="M36.8275 45.4102C34.2859 45.4102 32.2275 47.4685 32.2275 50.0018C32.2275 52.5352 34.2859 54.5935 36.8192 54.5935C39.3484 54.5935 41.4109 52.5352 41.4109 50.0018C41.4109 47.4727 39.3525 45.4143 36.8275 45.4102ZM36.8192 60.8435C30.84 60.8435 25.9775 55.9768 25.9775 50.0018C25.9775 44.0227 30.84 39.1602 36.8192 39.1602C42.8067 39.1643 47.6609 44.0268 47.6609 50.0018C47.6609 55.9768 42.7984 60.8435 36.8192 60.8435Z" fill="#00DFD9"/>
<path fill-rule="evenodd" clip-rule="evenodd" d="M70.8738 60.8439C69.1488 60.8439 67.7488 59.4439 67.7488 57.7189V53.123H44.5488C42.8238 53.123 41.4238 51.7272 41.4238 49.998C41.4238 48.273 42.8238 46.873 44.5488 46.873H70.8738C72.5988 46.873 73.9988 48.273 73.9988 49.998V57.7189C73.9988 59.4439 72.5988 60.8439 70.8738 60.8439Z" fill="#00DFD9"/>
<path fill-rule="evenodd" clip-rule="evenodd" d="M59.0889 60.8439C57.3639 60.8439 55.9639 59.4439 55.9639 57.7189V49.998C55.9639 48.273 57.3639 46.873 59.0889 46.873C60.8139 46.873 62.2139 48.273 62.2139 49.998V57.7189C62.2139 59.4439 60.8139 60.8439 59.0889 60.8439Z" fill="#00DFD9"/>
</svg>
