<svg width="46" height="46" viewBox="0 0 46 46" fill="none" xmlns="http://www.w3.org/2000/svg">
<path fill-rule="evenodd" clip-rule="evenodd" d="M15.3592 3.8335H9.53688C6.38425 3.8335 3.83337 6.40652 3.83337 9.57491V15.4478C3.83337 18.6149 6.38479 21.1892 9.53688 21.1892H15.3592C18.5113 21.1892 21.0627 18.6149 21.0627 15.4478V9.57491C21.0627 6.40652 18.5118 3.8335 15.3592 3.8335ZM9.53688 6.50791H15.3592C17.0296 6.50791 18.3883 7.87841 18.3883 9.57491V15.4478C18.3883 17.1432 17.0289 18.5148 15.3592 18.5148H9.53688C7.86721 18.5148 6.50779 17.1432 6.50779 15.4478V9.57491C6.50779 7.87841 7.86649 6.50791 9.53688 6.50791ZM36.465 3.8335H30.6409C27.4882 3.8335 24.9374 6.40652 24.9374 9.57491V15.4478C24.9374 18.6149 27.4888 21.1892 30.6409 21.1892H36.465C39.6157 21.1892 42.1667 18.6145 42.1667 15.4478V9.57491C42.1667 6.40689 39.6162 3.8335 36.465 3.8335ZM30.6409 6.50791H36.465C38.1338 6.50791 39.4923 7.8786 39.4923 9.57491V15.4478C39.4923 17.143 38.1331 18.5148 36.465 18.5148H30.6409C28.9712 18.5148 27.6118 17.1432 27.6118 15.4478V9.57491C27.6118 7.87841 28.9705 6.50791 30.6409 6.50791ZM9.53688 24.8111H15.3592C18.5122 24.8111 21.0627 27.3845 21.0627 30.5544V36.4254C21.0627 39.5938 18.5118 42.1668 15.3592 42.1668H9.53688C6.38425 42.1668 3.83337 39.5938 3.83337 36.4254V30.5544C3.83337 27.3845 6.38388 24.8111 9.53688 24.8111ZM15.3592 27.4855H9.53688C7.86629 27.4855 6.50779 28.8562 6.50779 30.5544V36.4254C6.50779 38.1219 7.86649 39.4924 9.53688 39.4924H15.3592C17.0296 39.4924 18.3883 38.1219 18.3883 36.4254V30.5544C18.3883 28.8562 17.0298 27.4855 15.3592 27.4855ZM36.465 24.8111H30.6409C27.4879 24.8111 24.9374 27.3845 24.9374 30.5544V36.4254C24.9374 39.5938 27.4882 42.1668 30.6409 42.1668H36.465C39.6162 42.1668 42.1667 39.5934 42.1667 36.4254V30.5544C42.1667 27.3849 39.6166 24.8111 36.465 24.8111ZM30.6409 27.4855H36.465C38.134 27.4855 39.4923 28.8564 39.4923 30.5544V36.4254C39.4923 38.1217 38.1338 39.4924 36.465 39.4924H30.6409C28.9705 39.4924 27.6118 38.1219 27.6118 36.4254V30.5544C27.6118 28.8562 28.9703 27.4855 30.6409 27.4855Z" fill="#FF776B"/>
</svg>
