<svg width="100" height="100" viewBox="0 0 100 100" fill="none" xmlns="http://www.w3.org/2000/svg">
<path fill-rule="evenodd" clip-rule="evenodd" d="M29.6719 73.1771C27.9469 73.1771 26.5469 71.7771 26.5469 70.0521V41.4688C26.5469 39.7438 27.9469 38.3438 29.6719 38.3438C31.3969 38.3438 32.7969 39.7438 32.7969 41.4688V70.0521C32.7969 71.7771 31.3969 73.1771 29.6719 73.1771Z" fill="#00DFD9"/>
<path fill-rule="evenodd" clip-rule="evenodd" d="M49.1172 73.1727C47.3922 73.1727 45.9922 71.7727 45.9922 70.0477V27.7852C45.9922 26.0602 47.3922 24.6602 49.1172 24.6602C50.8422 24.6602 52.2422 26.0602 52.2422 27.7852V70.0477C52.2422 71.7727 50.8422 73.1727 49.1172 73.1727Z" fill="#00DFD9"/>
<path fill-rule="evenodd" clip-rule="evenodd" d="M68.2441 73.1728C66.5191 73.1728 65.1191 71.7728 65.1191 70.0478V56.5728C65.1191 54.8478 66.5191 53.4478 68.2441 53.4478C69.9691 53.4478 71.3691 54.8478 71.3691 56.5728V70.0478C71.3691 71.7728 69.9691 73.1728 68.2441 73.1728Z" fill="#00DFD9"/>
<path fill-rule="evenodd" clip-rule="evenodd" d="M29.4337 10.4165C17.8837 10.4165 10.417 18.3207 10.417 30.5623V67.354C10.417 79.5957 17.8837 87.4998 29.4337 87.4998H68.4837C80.0378 87.4998 87.5003 79.5957 87.5003 67.354V30.5623C87.5003 18.3207 80.0378 10.4165 68.4837 10.4165H29.4337ZM68.4837 93.7498H29.4337C14.3212 93.7498 4.16699 83.1415 4.16699 67.354V30.5623C4.16699 14.7748 14.3212 4.1665 29.4337 4.1665H68.4837C83.5962 4.1665 93.7503 14.7748 93.7503 30.5623V67.354C93.7503 83.1415 83.5962 93.7498 68.4837 93.7498Z" fill="#00DFD9"/>
</svg>
