<svg width="100" height="100" viewBox="0 0 100 100" fill="none" xmlns="http://www.w3.org/2000/svg">
<mask id="mask0_386_2859" style="mask-type:luminance" maskUnits="userSpaceOnUse" x="16" y="8" width="72" height="86">
<path fill-rule="evenodd" clip-rule="evenodd" d="M16.667 8.33496H87.362V93.15H16.667V8.33496Z" fill="white"/>
</mask>
<g mask="url(#mask0_386_2859)">
<path fill-rule="evenodd" clip-rule="evenodd" d="M52.0145 14.5835C48.4812 14.5835 26.1896 22.4335 23.6187 24.5793C22.8604 25.3418 22.8312 26.6668 22.9937 35.5377C23.0687 39.8127 23.1729 45.621 23.1729 53.6627C23.1729 75.3335 47.0145 84.9543 52.0104 86.7252C57.002 84.946 80.8562 75.271 80.8562 53.6627C80.8562 45.6127 80.9604 39.8002 81.0396 35.5252C81.1979 26.6627 81.1687 25.3377 80.3645 24.5377C77.8437 22.4335 55.5479 14.5835 52.0145 14.5835ZM52.0146 93.1502C51.7104 93.1502 51.4062 93.1085 51.1104 93.0168C49.7146 92.596 16.9229 82.3377 16.9229 53.6627C16.9229 45.6752 16.8187 39.896 16.7437 35.6543C16.5521 25.0585 16.5104 22.8502 19.2479 20.1168C22.5187 16.8377 47.2896 8.3335 52.0146 8.3335C56.7354 8.3335 81.5062 16.8377 84.7854 20.1168C87.5187 22.8502 87.4771 25.0585 87.2854 35.6418C87.2104 39.8835 87.1062 45.6627 87.1062 53.6627C87.1062 82.3377 54.3146 92.596 52.9187 93.0168C52.6229 93.1085 52.3187 93.1502 52.0146 93.1502Z" fill="#00DFD9"/>
</g>
<path fill-rule="evenodd" clip-rule="evenodd" d="M49.0703 60.498C48.2411 60.498 47.4453 60.1688 46.8578 59.5813L38.9745 51.6896C37.7578 50.4688 37.7578 48.4855 38.9786 47.2688C40.1953 46.048 42.1786 46.048 43.3995 47.2688L49.0703 52.948L63.1036 38.9146C64.3245 37.6938 66.2995 37.6938 67.5203 38.9146C68.7411 40.1355 68.7411 42.1146 67.5203 43.3355L51.2786 59.5813C50.6953 60.1688 49.8995 60.498 49.0703 60.498Z" fill="#00DFD9"/>
</svg>
