<svg width="270" height="52" viewBox="0 0 270 52" fill="none" xmlns="http://www.w3.org/2000/svg">
<g clip-path="url(#clip0_28_5)">
<path d="M21.6808 43.7357C18.473 43.7357 15.5547 43.1572 12.9199 41.9943C10.2851 40.8373 7.99886 39.2317 6.07299 37.1833C4.14121 35.135 2.6525 32.7915 1.58914 30.1528C0.531682 27.5141 0 24.7102 0 21.7469C0 17.7564 0.897952 14.1201 2.68795 10.8321C4.47794 7.5441 7.00639 4.91724 10.2674 2.95153C13.5284 0.98581 17.3033 0 21.5981 0C25.8929 0 29.4375 0.938586 32.5626 2.80985C35.6877 4.68112 38.0094 7.19582 39.5335 10.3422L32.5271 12.5381C31.4401 10.531 29.916 8.96674 27.9606 7.85697C26.0052 6.74719 23.8312 6.1864 21.4386 6.1864C18.8275 6.1864 16.4526 6.85935 14.3082 8.19934C12.1637 9.54524 10.4623 11.3811 9.21582 13.7187C7.96342 16.0563 7.34312 18.7304 7.34312 21.7409C7.34312 24.7515 7.98114 27.3725 9.25718 29.7632C10.5332 32.1539 12.2464 34.0488 14.3909 35.4419C16.5353 36.841 18.9161 37.5375 21.5213 37.5375C23.205 37.5375 24.8236 37.2424 26.3714 36.6403C27.9192 36.044 29.278 35.2412 30.4477 34.2377C31.6174 33.2342 32.4149 32.1362 32.852 30.9379L39.8584 33.0571C38.99 35.1232 37.6726 36.9531 35.9063 38.5528C34.1399 40.1526 32.0486 41.4158 29.6324 42.3426C27.2162 43.2635 24.5637 43.7298 21.6867 43.7298L21.6808 43.7357Z" fill="black"/>
<path d="M66.7734 43.7357C63.2938 43.7357 60.1982 42.8739 57.4808 41.1502C54.7633 39.4265 52.6188 37.2424 51.0415 34.6037V52.0059H43.8697V0H50.2262V8.64797C51.9099 6.06244 54.1134 3.97276 56.8309 2.38483C59.5484 0.796912 62.5081 0 65.7159 0C68.652 0 71.3399 0.590305 73.7857 1.77682C76.2314 2.96333 78.3522 4.58077 80.1422 6.62323C81.9381 8.67159 83.3323 11.0033 84.3366 13.6183C85.3409 16.2334 85.843 18.9665 85.843 21.8236C85.843 25.8141 85.0396 29.474 83.4387 32.8151C81.8377 36.1562 79.5928 38.8126 76.7158 40.7783C73.8329 42.744 70.5188 43.7298 66.7734 43.7298V43.7357ZM64.5698 37.5434C66.6907 37.5434 68.6047 37.1007 70.3179 36.2152C72.0311 35.3298 73.4962 34.1492 74.7191 32.6675C75.9419 31.1917 76.8812 29.5094 77.5311 27.6322C78.1809 25.7491 78.5117 23.8188 78.5117 21.8295C78.5117 19.7339 78.1455 17.7446 77.4129 15.8674C76.6804 13.9843 75.6466 12.3197 74.3174 10.8734C72.9881 9.42128 71.4345 8.28199 69.674 7.44965C67.9076 6.61732 65.9936 6.19821 63.9259 6.19821C62.6203 6.19821 61.2793 6.44023 59.891 6.92428C58.5028 7.40833 57.1854 8.09309 55.9389 8.97264C54.6865 9.8581 53.629 10.8616 52.7606 11.9891C51.8922 13.1166 51.3191 14.3208 51.0474 15.6077V27.6499C51.8626 29.474 52.9496 31.1386 54.3084 32.638C55.6671 34.1374 57.2444 35.3357 59.0344 36.2211C60.8303 37.1066 62.6735 37.5493 64.5758 37.5493L64.5698 37.5434Z" fill="black"/>
<path d="M111.11 43.7358C107.902 43.7358 104.984 43.1573 102.349 41.9944C99.714 40.8374 97.4278 39.2435 95.5019 37.2247C93.5701 35.2059 92.0814 32.8741 91.0181 30.2296C89.9606 27.5909 89.4289 24.787 89.4289 21.8236C89.4289 17.8332 90.3505 14.1969 92.1996 10.9089C94.0487 7.62089 96.6125 4.98222 99.9031 2.98699C103.188 0.991757 106.951 -0.00585938 111.192 -0.00585938C115.434 -0.00585938 119.221 1.00356 122.399 3.02831C125.577 5.05306 128.047 7.69172 129.813 10.9561C131.58 14.2205 132.46 17.7387 132.46 21.5167C132.46 22.0539 132.448 22.5792 132.418 23.0928C132.389 23.6064 132.347 23.996 132.294 24.2675H97.0024C97.221 27.0065 97.9949 29.4327 99.3241 31.5519C100.653 33.6711 102.378 35.3357 104.499 36.5458C106.62 37.756 108.9 38.3581 111.346 38.3581C113.957 38.3581 116.415 37.7088 118.725 36.4042C121.034 35.0996 122.624 33.3936 123.492 31.2744L129.689 32.9863C128.762 35.0524 127.391 36.8941 125.571 38.5234C123.752 40.1526 121.602 41.4277 119.132 42.3486C116.657 43.2694 113.987 43.7358 111.104 43.7358H111.11ZM96.7661 19.303H125.784C125.566 16.5699 124.78 14.1497 123.421 12.06C122.062 9.9644 120.326 8.32925 118.205 7.14864C116.084 5.96803 113.75 5.37773 111.192 5.37773C108.634 5.37773 106.384 5.96803 104.263 7.14864C102.142 8.32925 100.417 9.9644 99.0878 12.06C97.7586 14.1556 96.9788 16.5699 96.7661 19.303Z" fill="black"/>
<path d="M180.547 30.7017C180.547 28.004 181.321 25.6723 182.869 23.7007C184.417 21.7291 186.55 20.2061 189.267 19.1259C191.984 18.0456 195.133 17.5084 198.719 17.5084C200.621 17.5084 202.63 17.656 204.751 17.957C206.872 18.2581 208.744 18.7067 210.375 19.3029V16.2275C210.375 13.0162 209.4 10.4838 207.439 8.63612C205.483 6.78847 202.713 5.86169 199.127 5.86169C196.787 5.86169 194.548 6.28081 192.404 7.12494C190.259 7.96908 187.991 9.1733 185.598 10.7494L182.993 5.70231C185.764 3.80152 188.534 2.37889 191.305 1.4285C194.076 0.478104 196.953 0.00585938 199.942 0.00585938C205.377 0.00585938 209.666 1.49933 212.821 4.48628C215.969 7.47322 217.547 11.629 217.547 16.9594V34.8044C217.547 35.6662 217.724 36.2978 218.078 36.6992C218.433 37.1066 219.018 37.3309 219.827 37.384V42.9211C219.118 43.0273 218.51 43.11 217.996 43.1631C217.476 43.2162 217.056 43.2457 216.731 43.2457C215.048 43.2457 213.783 42.7853 212.939 41.8585C212.094 40.9376 211.621 39.9577 211.515 38.9247L211.35 36.2388C209.5 38.6295 207.084 40.4713 204.095 41.7759C201.106 43.0804 198.146 43.7298 195.21 43.7298C192.274 43.7298 189.858 43.1513 187.631 41.9884C185.403 40.8255 183.667 39.2612 182.414 37.2955C181.162 35.3238 180.542 33.1279 180.542 30.7017H180.547ZM208.26 33.6828C208.91 32.9331 209.43 32.1657 209.808 31.3865C210.186 30.6073 210.375 29.9462 210.375 29.409V24.1671C208.691 23.5236 206.925 23.0278 205.076 22.6736C203.227 22.3253 201.407 22.1482 199.617 22.1482C195.978 22.1482 193.03 22.8625 190.773 24.2851C188.517 25.7078 187.388 27.6558 187.388 30.1291C187.388 31.475 187.755 32.7796 188.487 34.037C189.22 35.3002 190.307 36.3333 191.748 37.142C193.19 37.9507 194.968 38.3521 197.089 38.3521C199.316 38.3521 201.437 37.9094 203.445 37.0239C205.454 36.1385 207.061 35.0228 208.254 33.6769L208.26 33.6828Z" fill="black"/>
<path d="M139.123 43.7357H177.676V37.384H171.893V0H142.958L142.55 13.6833C142.384 18.4293 142.06 22.3372 141.569 25.4126C141.079 28.4881 140.441 30.8966 139.655 32.6498C138.869 34.403 137.972 35.6308 136.967 36.3333C135.963 37.0358 134.858 37.384 133.665 37.384H132.767V43.7357H139.123ZM146.337 33.2637C147.069 31.4338 147.666 28.9722 148.133 25.8731C148.593 22.7799 148.906 18.9429 149.072 14.3621L149.314 6.35169H164.721V37.384H143.69C144.724 36.4691 145.604 35.0937 146.337 33.2637Z" fill="black"/>
<path d="M248.142 43.6826C260.214 43.6826 270 33.9039 270 21.8413C270 9.77868 260.214 0 248.142 0C236.07 0 226.284 9.77868 226.284 21.8413C226.284 33.9039 236.07 43.6826 248.142 43.6826Z" fill="#00DFD9"/>
<path d="M236.02 28.8187V14.8639H238.046V20.8791H245.029V14.8639H247.067V28.8128H245.029V22.7858H238.046V28.8128H236.02V28.8187Z" fill="white"/>
<path d="M249.778 28.8187V14.8639H255.42C255.556 14.8639 255.721 14.8639 255.922 14.8757C256.123 14.8816 256.312 14.9052 256.495 14.9406C257.269 15.0646 257.919 15.3302 258.439 15.7375C258.959 16.1449 259.349 16.6584 259.609 17.2782C259.868 17.8981 259.998 18.5828 259.998 19.3325C259.998 20.4423 259.715 21.3986 259.148 22.2073C258.581 23.0101 257.724 23.5119 256.59 23.7126L255.769 23.807H251.811V28.8187H249.784H249.778ZM251.805 21.8885H255.343C255.473 21.8885 255.615 21.8826 255.775 21.8708C255.934 21.859 256.082 21.8354 256.223 21.8059C256.637 21.7055 256.968 21.5284 257.222 21.2687C257.476 21.009 257.653 20.7079 257.765 20.3655C257.878 20.0232 257.931 19.6808 257.931 19.3384C257.931 18.996 257.878 18.6537 257.765 18.3172C257.653 17.9748 257.476 17.6796 257.222 17.414C256.968 17.1543 256.637 16.9713 256.223 16.8768C256.082 16.8355 255.934 16.8119 255.775 16.8001C255.615 16.7883 255.473 16.7824 255.343 16.7824H251.805V21.9003V21.8885ZM257.943 28.8187L255.19 23.14L257.234 22.6146L260.258 28.8128H257.943V28.8187Z" fill="white"/>
</g>
<defs>
<clipPath id="clip0_28_5">
<rect width="270" height="52" fill="white"/>
</clipPath>
</defs>
</svg>
