<svg width="0" height="0" class="hidden">
  <symbol fill="none" xmlns="http://www.w3.org/2000/svg" viewBox="0 0 46 46" id="icon-exit">
    <path fill-rule="evenodd" clip-rule="evenodd" d="M41.1961 11.9574C40.9877 7.45815 37.275 3.87549 32.7241 3.87549H23.3631L22.9628 3.88474C18.4529 4.09358 14.8627 7.81344 14.8627 12.374V14.1622L14.8758 14.3573C14.971 15.0589 15.5724 15.5997 16.3002 15.5997C17.0941 15.5997 17.7377 14.9561 17.7377 14.1622V12.374L17.7472 12.0435C17.9182 9.09069 20.3659 6.75049 23.3631 6.75049H32.7241L33.0535 6.76C35.997 6.93048 38.3303 9.37042 38.3303 12.3567V33.7084L38.3208 34.0389C38.1497 36.9916 35.7005 39.3338 32.7049 39.3338H23.342L23.0128 39.3243C20.0714 39.1537 17.7377 36.7125 17.7377 33.7276V31.9221L17.7245 31.727C17.6293 31.0254 17.0279 30.4846 16.3002 30.4846C15.5062 30.4846 14.8627 31.1282 14.8627 31.9221V33.7276L14.8724 34.1384C15.0868 38.6308 18.7971 42.2088 23.342 42.2088H32.7049L33.105 42.1996C37.6136 41.9906 41.2053 38.2686 41.2053 33.7084V12.3567L41.1961 11.9574ZM23.6774 16.4384C24.1867 15.927 24.9852 15.879 25.5488 16.2954L25.7103 16.4342L31.3223 22.0232C31.8352 22.534 31.8818 23.3353 31.4622 23.8989L31.457 23.9049C31.4168 23.9583 31.3731 24.0088 31.326 24.056L31.3223 24.0603L25.7103 29.6493C25.1478 30.2095 24.2376 30.2077 23.6774 29.6451C23.1681 29.1338 23.1233 28.3351 23.542 27.7732L23.6815 27.6122L26.8264 24.4793H7.22876C6.43485 24.4793 5.79126 23.8357 5.79126 23.0418C5.79126 22.314 6.33205 21.7126 7.0337 21.6174L7.22876 21.6043H26.8259L23.6815 18.4713C23.1702 17.962 23.1221 17.1635 23.5385 16.5999L23.6774 16.4384Z" fill="#FF776B"></path>
  </symbol>
  
  <symbol fill="none" xmlns="http://www.w3.org/2000/svg" viewBox="0 0 46 46" id="icon-user-regist">
    <path fill-rule="evenodd" clip-rule="evenodd" d="M18.9317 3.83313C13.2784 3.83313 8.73886 8.372 8.73886 14.026C8.73886 19.6786 13.279 24.2188 18.9317 24.2188C24.5857 24.2188 29.1245 19.6792 29.1245 14.026C29.1245 8.37139 24.5863 3.83313 18.9317 3.83313ZM18.9317 6.70813C22.9984 6.70813 26.2495 9.95921 26.2495 14.026C26.2495 18.0915 22.9977 21.3438 18.9317 21.3438C14.8668 21.3438 11.6139 18.0908 11.6139 14.026C11.6139 9.95992 14.8661 6.70813 18.9317 6.70813ZM18.9317 27.7077C9.29084 27.7077 3.83411 29.5371 3.83411 34.7208C3.83411 39.9102 9.31505 41.7741 18.9317 41.7741L20.1651 41.7636C29.0344 41.6086 34.0293 39.718 34.0293 34.761C34.0293 29.6844 28.784 27.7903 19.553 27.7104L18.9317 27.7077ZM18.9317 30.5827C26.9845 30.5827 31.1543 32.0007 31.1543 34.761C31.1543 37.5042 26.9947 38.8991 18.9317 38.8991C10.8789 38.8991 6.70911 37.4811 6.70911 34.7208C6.70911 32.0506 10.6447 30.659 18.2863 30.5858L18.9317 30.5827ZM36.8079 15.1783C37.5356 15.1783 38.1371 15.7191 38.2322 16.4207L38.2454 16.6158V19.021H40.7292C41.5231 19.021 42.1667 19.6646 42.1667 20.4585C42.1667 21.1862 41.6259 21.7877 40.9242 21.8829L40.7292 21.896H38.2454V24.3016C38.2454 25.0955 37.6018 25.7391 36.8079 25.7391C36.0801 25.7391 35.4787 25.1983 35.3835 24.4967L35.3704 24.3016V21.896H32.89C32.0961 21.896 31.4525 21.2524 31.4525 20.4585C31.4525 19.7307 31.9933 19.1293 32.6949 19.0341L32.89 19.021H35.3704V16.6158C35.3704 15.8219 36.014 15.1783 36.8079 15.1783Z" fill="#FF776B"></path>
  </symbol>

  <symbol fill="none" xmlns="http://www.w3.org/2000/svg" viewBox="0 0 46 46" id="icon-menu">
    <path fill-rule="evenodd" clip-rule="evenodd" d="M15.3592 3.8335H9.53688C6.38425 3.8335 3.83337 6.40652 3.83337 9.57491V15.4478C3.83337 18.6149 6.38479 21.1892 9.53688 21.1892H15.3592C18.5113 21.1892 21.0627 18.6149 21.0627 15.4478V9.57491C21.0627 6.40652 18.5118 3.8335 15.3592 3.8335ZM9.53688 6.50791H15.3592C17.0296 6.50791 18.3883 7.87841 18.3883 9.57491V15.4478C18.3883 17.1432 17.0289 18.5148 15.3592 18.5148H9.53688C7.86721 18.5148 6.50779 17.1432 6.50779 15.4478V9.57491C6.50779 7.87841 7.86649 6.50791 9.53688 6.50791ZM36.465 3.8335H30.6409C27.4882 3.8335 24.9374 6.40652 24.9374 9.57491V15.4478C24.9374 18.6149 27.4888 21.1892 30.6409 21.1892H36.465C39.6157 21.1892 42.1667 18.6145 42.1667 15.4478V9.57491C42.1667 6.40689 39.6162 3.8335 36.465 3.8335ZM30.6409 6.50791H36.465C38.1338 6.50791 39.4923 7.8786 39.4923 9.57491V15.4478C39.4923 17.143 38.1331 18.5148 36.465 18.5148H30.6409C28.9712 18.5148 27.6118 17.1432 27.6118 15.4478V9.57491C27.6118 7.87841 28.9705 6.50791 30.6409 6.50791ZM9.53688 24.8111H15.3592C18.5122 24.8111 21.0627 27.3845 21.0627 30.5544V36.4254C21.0627 39.5938 18.5118 42.1668 15.3592 42.1668H9.53688C6.38425 42.1668 3.83337 39.5938 3.83337 36.4254V30.5544C3.83337 27.3845 6.38388 24.8111 9.53688 24.8111ZM15.3592 27.4855H9.53688C7.86629 27.4855 6.50779 28.8562 6.50779 30.5544V36.4254C6.50779 38.1219 7.86649 39.4924 9.53688 39.4924H15.3592C17.0296 39.4924 18.3883 38.1219 18.3883 36.4254V30.5544C18.3883 28.8562 17.0298 27.4855 15.3592 27.4855ZM36.465 24.8111H30.6409C27.4879 24.8111 24.9374 27.3845 24.9374 30.5544V36.4254C24.9374 39.5938 27.4882 42.1668 30.6409 42.1668H36.465C39.6162 42.1668 42.1667 39.5934 42.1667 36.4254V30.5544C42.1667 27.3849 39.6166 24.8111 36.465 24.8111ZM30.6409 27.4855H36.465C38.134 27.4855 39.4923 28.8564 39.4923 30.5544V36.4254C39.4923 38.1217 38.1338 39.4924 36.465 39.4924H30.6409C28.9705 39.4924 27.6118 38.1219 27.6118 36.4254V30.5544C27.6118 28.8562 28.9703 27.4855 30.6409 27.4855Z" fill="#FF776B"></path>
  </symbol>

  <symbol fill="none" xmlns="http://www.w3.org/2000/svg" viewBox="0 0 41 42" id="icon-close">
    <rect x="0.1875" y="2.8125" width="3" height="54.4409" rx="1.5" transform="rotate(-45 0.1875 2.8125)" fill="#FF776B"></rect>
    <rect x="2.12109" y="41.3081" width="3" height="54.4409" rx="1.5" transform="rotate(-135 2.12109 41.3081)" fill="#FF776B"></rect>
  </symbol>

  <symbol fill="none" xmlns="http://www.w3.org/2000/svg" viewBox="0 0 40 40" id="icon-telegram">
    <path fill-rule="evenodd" clip-rule="evenodd" d="M40 20C40 31.0457 31.0457 40 20 40C8.95433 40 0 31.0457 0 20C0 8.95433 8.95433 0 20 0C31.0457 0 40 8.95433 40 20ZM13.3929 18.1679C11.3894 19.0427 9.33092 19.9415 7.44854 20.9783C6.46564 21.698 7.77198 22.2071 8.99758 22.6846C9.19242 22.7605 9.38517 22.8356 9.56642 22.9106C9.71725 22.957 9.87058 23.0058 10.026 23.0553C11.3891 23.4896 12.9089 23.9738 14.2323 23.2454C16.4061 21.9967 18.4575 20.553 20.5074 19.1104C21.179 18.6377 21.8504 18.1652 22.5259 17.6997C22.5576 17.6795 22.5933 17.6563 22.6323 17.6311C23.2078 17.258 24.502 16.4191 24.0232 17.5751C22.8912 18.8131 21.6787 19.9089 20.4596 21.0108C19.6379 21.7534 18.8133 22.4987 18.0083 23.2921C17.3072 23.8617 16.5791 25.0073 17.3642 25.8051C19.1724 27.0709 21.0089 28.3061 22.8443 29.5406C23.4416 29.9422 24.0388 30.3439 24.6348 30.7466C25.645 31.5531 27.2238 30.9007 27.4458 29.6404C27.5446 29.0607 27.6437 28.481 27.7429 27.9012C28.2909 24.6973 28.8391 21.4922 29.3233 18.2779C29.3892 17.7737 29.4637 17.2695 29.5384 16.7651C29.7193 15.5425 29.9005 14.3184 29.9571 13.0892C29.8113 11.8626 28.3239 12.1323 27.4962 12.4082C23.2419 14.027 19.0301 15.7658 14.8349 17.5353C14.3597 17.7458 13.8779 17.9562 13.3929 18.1679Z" fill="black"></path>
  </symbol>
  
  <symbol fill="none" xmlns="http://www.w3.org/2000/svg" viewBox="0 0 40 40" id="icon-vk">
    <path fill-rule="evenodd" clip-rule="evenodd" d="M0 20C0 8.9543 8.9543 0 20 0C31.0457 0 40 8.9543 40 20C40 31.0457 31.0457 40 20 40C8.9543 40 0 31.0457 0 20ZM21.0462 26.5634C21.0462 26.5634 21.4312 26.5214 21.6284 26.3135C21.809 26.123 21.8027 25.7635 21.8027 25.7635C21.8027 25.7635 21.7787 24.0848 22.5727 23.8369C23.3553 23.5932 24.3601 25.4603 25.4265 26.1783C26.232 26.7211 26.8434 26.6023 26.8434 26.6023L29.693 26.5634C29.693 26.5634 31.183 26.4733 30.4766 25.3231C30.4182 25.2289 30.0644 24.472 28.3585 22.9172C26.5711 21.2897 26.8111 21.553 28.9626 18.7374C30.2731 17.0229 30.7969 15.9761 30.6331 15.5285C30.4776 15.1004 29.5135 15.2141 29.5135 15.2141L26.3061 15.2336C26.3061 15.2336 26.0682 15.2018 25.8918 15.3053C25.7197 15.4067 25.608 15.6433 25.608 15.6433C25.608 15.6433 25.1009 16.9696 24.4237 18.0983C22.9953 20.4786 22.4246 20.6045 22.1908 20.4571C21.6472 20.1119 21.7829 19.0723 21.7829 18.3339C21.7829 16.0263 22.1397 15.0646 21.089 14.8157C20.7405 14.7327 20.4838 14.6784 19.5917 14.6692C18.4471 14.658 17.4788 14.6733 16.9299 14.9365C16.5648 15.1117 16.283 15.5029 16.4552 15.5255C16.667 15.5531 17.147 15.6525 17.4016 15.9925C17.7302 16.4319 17.7188 17.4172 17.7188 17.4172C17.7188 17.4172 17.9076 20.1334 17.2774 20.4704C16.8454 20.7018 16.2528 20.2297 14.9788 18.0696C14.3266 16.9635 13.8341 15.7406 13.8341 15.7406C13.8341 15.7406 13.7392 15.5122 13.5691 15.3893C13.3636 15.2407 13.0766 15.1947 13.0766 15.1947L10.0288 15.2141C10.0288 15.2141 9.57075 15.2264 9.40276 15.422C9.25355 15.5951 9.39128 15.9546 9.39128 15.9546C9.39128 15.9546 11.7776 21.4352 14.48 24.1975C16.9581 26.7293 19.7712 26.5634 19.7712 26.5634H21.0462Z" fill="black"></path>
  </symbol>

  <symbol xmlns="http://www.w3.org/2000/svg" viewBox="0 0 22 8" id="icon-arrow-link">
    <path d="M1 3.5C0.723858 3.5 0.5 3.72386 0.5 4C0.5 4.27614 0.723858 4.5 1 4.5V3.5ZM21.3536 4.35355C21.5488 4.15829 21.5488 3.84171 21.3536 3.64645L18.1716 0.464466C17.9763 0.269204 17.6597 0.269204 17.4645 0.464466C17.2692 0.659728 17.2692 0.976311 17.4645 1.17157L20.2929 4L17.4645 6.82843C17.2692 7.02369 17.2692 7.34027 17.4645 7.53553C17.6597 7.7308 17.9763 7.7308 18.1716 7.53553L21.3536 4.35355ZM1 4.5H21V3.5H1V4.5Z" ></path>
  </symbol>

  <symbol fill="none" xmlns="http://www.w3.org/2000/svg" viewBox="0 0 20 19" id="icon-star">
    <path fill-rule="evenodd" clip-rule="evenodd" d="M3.421 18.2C3.685 18.693 4.2 19.001 4.76 19C4.996 19.001 5.23 18.946 5.44 18.84L9.992 16.46C10.004 16.453 10.018 16.449 10.032 16.45L14.553 18.81C14.772 18.928 15.017 18.989 15.265 18.988C15.344 18.988 15.424 18.981 15.502 18.97C16.316 18.837 16.872 18.075 16.752 17.26L15.872 12.25C15.8671 12.2429 15.8656 12.2424 15.8652 12.2416C15.865 12.2412 15.865 12.2409 15.865 12.24C15.865 12.237 15.872 12.23 15.872 12.23L19.542 8.68C20.084 8.157 20.153 7.314 19.702 6.71C19.457 6.394 19.098 6.186 18.702 6.13L13.64 5.4C13.631 5.4 13.621 5.39 13.611 5.38L11.35 0.84C11.095 0.327 10.573 0.003 10 0C9.834 0 9.668 0.026 9.51 0.08C9.131 0.209 8.818 0.481 8.64 0.84L6.382 5.367C6.382 5.388 6.361 5.397 6.341 5.397L1.291 6.127C0.982 6.179 0.694 6.317 0.461 6.527C0.166 6.816 0 7.213 0 7.627C0.001 8.02 0.159 8.396 0.44 8.67L4.14 12.23C4.148 12.238 4.151 12.249 4.151 12.26L3.26 17.25C3.207 17.576 3.264 17.91 3.421 18.2ZM9.971 1.467L9.981 1.46H10L10.009 1.469C10.018 1.469 10.026 1.471 10.033 1.477C10.039 1.483 10.042 1.491 10.041 1.5L12.301 6.019C12.518 6.464 12.94 6.774 13.43 6.849L18.492 7.585C18.501 7.585 18.51 7.587 18.518 7.591C18.523 7.592 18.527 7.592 18.532 7.591L18.542 7.6L18.532 7.622L14.862 11.181C14.497 11.523 14.334 12.029 14.431 12.52L15.312 17.501L15.292 17.52H15.271C15.267 17.522 15.263 17.522 15.259 17.52C15.249 17.519 15.239 17.515 15.23 17.51H15.221L10.721 15.16C10.505 15.048 10.265 14.988 10.021 14.989C9.77 14.989 9.522 15.052 9.3 15.17L4.771 17.545C4.766 17.546 4.76 17.546 4.755 17.545C4.734 17.545 4.716 17.531 4.711 17.511V17.491L5.591 12.511C5.673 12.024 5.513 11.527 5.161 11.181L1.461 7.631C1.46 7.616 1.462 7.603 1.47 7.59L1.531 7.57L6.561 6.849C7.051 6.773 7.472 6.464 7.69 6.019L9.951 1.489C9.956 1.48 9.962 1.472 9.971 1.467Z" fill="black"></path>
  </symbol>
  
  <symbol fill="none" xmlns="http://www.w3.org/2000/svg" viewBox="0 0 20 20" id="icon-watch">
    <path fill-rule="evenodd" clip-rule="evenodd" d="M10 0C4.47679 0 0 4.47679 0 10C0 15.5232 4.47679 20 10 20C15.5232 20 20 15.5232 20 10C20 4.47679 15.5232 0 10 0ZM10 1.5C14.6948 1.5 18.5 5.30521 18.5 10C18.5 14.6948 14.6948 18.5 10 18.5C5.30521 18.5 1.5 14.6948 1.5 10C1.5 5.30521 5.30521 1.5 10 1.5ZM10.4048 5.74463C10.3551 5.37855 10.0413 5.0964 9.6616 5.0964C9.24739 5.0964 8.9116 5.43219 8.9116 5.8464V10.6934L8.91996 10.8051C8.95309 11.0252 9.08294 11.2215 9.27736 11.3375L13.0474 13.5865L13.1383 13.6328C13.4781 13.7777 13.8812 13.6527 14.0757 13.3266L14.122 13.2357C14.2669 12.8959 14.1419 12.4928 13.8158 12.2983L10.4112 10.2665L10.4116 5.8464L10.4048 5.74463Z" fill="black"></path>
  </symbol>
  
</svg>
