<svg width="0" height="0" class="hidden">
  <symbol fill="none" xmlns="http://www.w3.org/2000/svg" viewBox="0 0 46 46" id="icon-exit">
    <path fill-rule="evenodd" clip-rule="evenodd" d="M41.1961 11.9574C40.9877 7.45815 37.275 3.87549 32.7241 3.87549H23.3631L22.9628 3.88474C18.4529 4.09358 14.8627 7.81344 14.8627 12.374V14.1622L14.8758 14.3573C14.971 15.0589 15.5724 15.5997 16.3002 15.5997C17.0941 15.5997 17.7377 14.9561 17.7377 14.1622V12.374L17.7472 12.0435C17.9182 9.09069 20.3659 6.75049 23.3631 6.75049H32.7241L33.0535 6.76C35.997 6.93048 38.3303 9.37042 38.3303 12.3567V33.7084L38.3208 34.0389C38.1497 36.9916 35.7005 39.3338 32.7049 39.3338H23.342L23.0128 39.3243C20.0714 39.1537 17.7377 36.7125 17.7377 33.7276V31.9221L17.7245 31.727C17.6293 31.0254 17.0279 30.4846 16.3002 30.4846C15.5062 30.4846 14.8627 31.1282 14.8627 31.9221V33.7276L14.8724 34.1384C15.0868 38.6308 18.7971 42.2088 23.342 42.2088H32.7049L33.105 42.1996C37.6136 41.9906 41.2053 38.2686 41.2053 33.7084V12.3567L41.1961 11.9574ZM23.6774 16.4384C24.1867 15.927 24.9852 15.879 25.5488 16.2954L25.7103 16.4342L31.3223 22.0232C31.8352 22.534 31.8818 23.3353 31.4622 23.8989L31.457 23.9049C31.4168 23.9583 31.3731 24.0088 31.326 24.056L31.3223 24.0603L25.7103 29.6493C25.1478 30.2095 24.2376 30.2077 23.6774 29.6451C23.1681 29.1338 23.1233 28.3351 23.542 27.7732L23.6815 27.6122L26.8264 24.4793H7.22876C6.43485 24.4793 5.79126 23.8357 5.79126 23.0418C5.79126 22.314 6.33205 21.7126 7.0337 21.6174L7.22876 21.6043H26.8259L23.6815 18.4713C23.1702 17.962 23.1221 17.1635 23.5385 16.5999L23.6774 16.4384Z" fill="#FF776B"></path>
  </symbol>
  
  <symbol fill="none" xmlns="http://www.w3.org/2000/svg" viewBox="0 0 46 46" id="icon-user-regist">
    <path fill-rule="evenodd" clip-rule="evenodd" d="M18.9317 3.83313C13.2784 3.83313 8.73886 8.372 8.73886 14.026C8.73886 19.6786 13.279 24.2188 18.9317 24.2188C24.5857 24.2188 29.1245 19.6792 29.1245 14.026C29.1245 8.37139 24.5863 3.83313 18.9317 3.83313ZM18.9317 6.70813C22.9984 6.70813 26.2495 9.95921 26.2495 14.026C26.2495 18.0915 22.9977 21.3438 18.9317 21.3438C14.8668 21.3438 11.6139 18.0908 11.6139 14.026C11.6139 9.95992 14.8661 6.70813 18.9317 6.70813ZM18.9317 27.7077C9.29084 27.7077 3.83411 29.5371 3.83411 34.7208C3.83411 39.9102 9.31505 41.7741 18.9317 41.7741L20.1651 41.7636C29.0344 41.6086 34.0293 39.718 34.0293 34.761C34.0293 29.6844 28.784 27.7903 19.553 27.7104L18.9317 27.7077ZM18.9317 30.5827C26.9845 30.5827 31.1543 32.0007 31.1543 34.761C31.1543 37.5042 26.9947 38.8991 18.9317 38.8991C10.8789 38.8991 6.70911 37.4811 6.70911 34.7208C6.70911 32.0506 10.6447 30.659 18.2863 30.5858L18.9317 30.5827ZM36.8079 15.1783C37.5356 15.1783 38.1371 15.7191 38.2322 16.4207L38.2454 16.6158V19.021H40.7292C41.5231 19.021 42.1667 19.6646 42.1667 20.4585C42.1667 21.1862 41.6259 21.7877 40.9242 21.8829L40.7292 21.896H38.2454V24.3016C38.2454 25.0955 37.6018 25.7391 36.8079 25.7391C36.0801 25.7391 35.4787 25.1983 35.3835 24.4967L35.3704 24.3016V21.896H32.89C32.0961 21.896 31.4525 21.2524 31.4525 20.4585C31.4525 19.7307 31.9933 19.1293 32.6949 19.0341L32.89 19.021H35.3704V16.6158C35.3704 15.8219 36.014 15.1783 36.8079 15.1783Z" fill="#FF776B"></path>
  </symbol>

  <symbol fill="none" xmlns="http://www.w3.org/2000/svg" viewBox="0 0 46 46" id="icon-menu">
    <path fill-rule="evenodd" clip-rule="evenodd" d="M15.3592 3.8335H9.53688C6.38425 3.8335 3.83337 6.40652 3.83337 9.57491V15.4478C3.83337 18.6149 6.38479 21.1892 9.53688 21.1892H15.3592C18.5113 21.1892 21.0627 18.6149 21.0627 15.4478V9.57491C21.0627 6.40652 18.5118 3.8335 15.3592 3.8335ZM9.53688 6.50791H15.3592C17.0296 6.50791 18.3883 7.87841 18.3883 9.57491V15.4478C18.3883 17.1432 17.0289 18.5148 15.3592 18.5148H9.53688C7.86721 18.5148 6.50779 17.1432 6.50779 15.4478V9.57491C6.50779 7.87841 7.86649 6.50791 9.53688 6.50791ZM36.465 3.8335H30.6409C27.4882 3.8335 24.9374 6.40652 24.9374 9.57491V15.4478C24.9374 18.6149 27.4888 21.1892 30.6409 21.1892H36.465C39.6157 21.1892 42.1667 18.6145 42.1667 15.4478V9.57491C42.1667 6.40689 39.6162 3.8335 36.465 3.8335ZM30.6409 6.50791H36.465C38.1338 6.50791 39.4923 7.8786 39.4923 9.57491V15.4478C39.4923 17.143 38.1331 18.5148 36.465 18.5148H30.6409C28.9712 18.5148 27.6118 17.1432 27.6118 15.4478V9.57491C27.6118 7.87841 28.9705 6.50791 30.6409 6.50791ZM9.53688 24.8111H15.3592C18.5122 24.8111 21.0627 27.3845 21.0627 30.5544V36.4254C21.0627 39.5938 18.5118 42.1668 15.3592 42.1668H9.53688C6.38425 42.1668 3.83337 39.5938 3.83337 36.4254V30.5544C3.83337 27.3845 6.38388 24.8111 9.53688 24.8111ZM15.3592 27.4855H9.53688C7.86629 27.4855 6.50779 28.8562 6.50779 30.5544V36.4254C6.50779 38.1219 7.86649 39.4924 9.53688 39.4924H15.3592C17.0296 39.4924 18.3883 38.1219 18.3883 36.4254V30.5544C18.3883 28.8562 17.0298 27.4855 15.3592 27.4855ZM36.465 24.8111H30.6409C27.4879 24.8111 24.9374 27.3845 24.9374 30.5544V36.4254C24.9374 39.5938 27.4882 42.1668 30.6409 42.1668H36.465C39.6162 42.1668 42.1667 39.5934 42.1667 36.4254V30.5544C42.1667 27.3849 39.6166 24.8111 36.465 24.8111ZM30.6409 27.4855H36.465C38.134 27.4855 39.4923 28.8564 39.4923 30.5544V36.4254C39.4923 38.1217 38.1338 39.4924 36.465 39.4924H30.6409C28.9705 39.4924 27.6118 38.1219 27.6118 36.4254V30.5544C27.6118 28.8562 28.9703 27.4855 30.6409 27.4855Z" fill="#FF776B"></path>
  </symbol>

  <symbol fill="none" xmlns="http://www.w3.org/2000/svg" viewBox="0 0 41 42" id="icon-close">
    <rect x="0.1875" y="2.8125" width="3" height="54.4409" rx="1.5" transform="rotate(-45 0.1875 2.8125)" fill="#FF776B"></rect>
    <rect x="2.12109" y="41.3081" width="3" height="54.4409" rx="1.5" transform="rotate(-135 2.12109 41.3081)" fill="#FF776B"></rect>
  </symbol>

  <symbol xmlns="http://www.w3.org/2000/svg" viewBox="0 0 40 40" id="icon-telegram">
    <path fill-rule="evenodd" clip-rule="evenodd" d="M40 20C40 31.0457 31.0457 40 20 40C8.95433 40 0 31.0457 0 20C0 8.95433 8.95433 0 20 0C31.0457 0 40 8.95433 40 20ZM13.3929 18.1679C11.3894 19.0427 9.33092 19.9415 7.44854 20.9783C6.46564 21.698 7.77198 22.2071 8.99758 22.6846C9.19242 22.7605 9.38517 22.8356 9.56642 22.9106C9.71725 22.957 9.87058 23.0058 10.026 23.0553C11.3891 23.4896 12.9089 23.9738 14.2323 23.2454C16.4061 21.9967 18.4575 20.553 20.5074 19.1104C21.179 18.6377 21.8504 18.1652 22.5259 17.6997C22.5576 17.6795 22.5933 17.6563 22.6323 17.6311C23.2078 17.258 24.502 16.4191 24.0232 17.5751C22.8912 18.8131 21.6787 19.9089 20.4596 21.0108C19.6379 21.7534 18.8133 22.4987 18.0083 23.2921C17.3072 23.8617 16.5791 25.0073 17.3642 25.8051C19.1724 27.0709 21.0089 28.3061 22.8443 29.5406C23.4416 29.9422 24.0388 30.3439 24.6348 30.7466C25.645 31.5531 27.2238 30.9007 27.4458 29.6404C27.5446 29.0607 27.6437 28.481 27.7429 27.9012C28.2909 24.6973 28.8391 21.4922 29.3233 18.2779C29.3892 17.7737 29.4637 17.2695 29.5384 16.7651C29.7193 15.5425 29.9005 14.3184 29.9571 13.0892C29.8113 11.8626 28.3239 12.1323 27.4962 12.4082C23.2419 14.027 19.0301 15.7658 14.8349 17.5353C14.3597 17.7458 13.8779 17.9562 13.3929 18.1679Z"></path>
  </symbol>
  
  <symbol xmlns="http://www.w3.org/2000/svg" viewBox="0 0 40 40" id="icon-vk">
    <path fill-rule="evenodd" clip-rule="evenodd" d="M0 20C0 8.9543 8.9543 0 20 0C31.0457 0 40 8.9543 40 20C40 31.0457 31.0457 40 20 40C8.9543 40 0 31.0457 0 20ZM21.0462 26.5634C21.0462 26.5634 21.4312 26.5214 21.6284 26.3135C21.809 26.123 21.8027 25.7635 21.8027 25.7635C21.8027 25.7635 21.7787 24.0848 22.5727 23.8369C23.3553 23.5932 24.3601 25.4603 25.4265 26.1783C26.232 26.7211 26.8434 26.6023 26.8434 26.6023L29.693 26.5634C29.693 26.5634 31.183 26.4733 30.4766 25.3231C30.4182 25.2289 30.0644 24.472 28.3585 22.9172C26.5711 21.2897 26.8111 21.553 28.9626 18.7374C30.2731 17.0229 30.7969 15.9761 30.6331 15.5285C30.4776 15.1004 29.5135 15.2141 29.5135 15.2141L26.3061 15.2336C26.3061 15.2336 26.0682 15.2018 25.8918 15.3053C25.7197 15.4067 25.608 15.6433 25.608 15.6433C25.608 15.6433 25.1009 16.9696 24.4237 18.0983C22.9953 20.4786 22.4246 20.6045 22.1908 20.4571C21.6472 20.1119 21.7829 19.0723 21.7829 18.3339C21.7829 16.0263 22.1397 15.0646 21.089 14.8157C20.7405 14.7327 20.4838 14.6784 19.5917 14.6692C18.4471 14.658 17.4788 14.6733 16.9299 14.9365C16.5648 15.1117 16.283 15.5029 16.4552 15.5255C16.667 15.5531 17.147 15.6525 17.4016 15.9925C17.7302 16.4319 17.7188 17.4172 17.7188 17.4172C17.7188 17.4172 17.9076 20.1334 17.2774 20.4704C16.8454 20.7018 16.2528 20.2297 14.9788 18.0696C14.3266 16.9635 13.8341 15.7406 13.8341 15.7406C13.8341 15.7406 13.7392 15.5122 13.5691 15.3893C13.3636 15.2407 13.0766 15.1947 13.0766 15.1947L10.0288 15.2141C10.0288 15.2141 9.57075 15.2264 9.40276 15.422C9.25355 15.5951 9.39128 15.9546 9.39128 15.9546C9.39128 15.9546 11.7776 21.4352 14.48 24.1975C16.9581 26.7293 19.7712 26.5634 19.7712 26.5634H21.0462Z"></path>
  </symbol>

  <symbol xmlns="http://www.w3.org/2000/svg" viewBox="0 0 22 8" id="icon-arrow-link">
    <path d="M1 3.5C0.723858 3.5 0.5 3.72386 0.5 4C0.5 4.27614 0.723858 4.5 1 4.5V3.5ZM21.3536 4.35355C21.5488 4.15829 21.5488 3.84171 21.3536 3.64645L18.1716 0.464466C17.9763 0.269204 17.6597 0.269204 17.4645 0.464466C17.2692 0.659728 17.2692 0.976311 17.4645 1.17157L20.2929 4L17.4645 6.82843C17.2692 7.02369 17.2692 7.34027 17.4645 7.53553C17.6597 7.7308 17.9763 7.7308 18.1716 7.53553L21.3536 4.35355ZM1 4.5H21V3.5H1V4.5Z" ></path>
  </symbol>

  <symbol fill="none" xmlns="http://www.w3.org/2000/svg" viewBox="0 0 20 19" id="icon-star">
    <path fill-rule="evenodd" clip-rule="evenodd" d="M3.421 18.2C3.685 18.693 4.2 19.001 4.76 19C4.996 19.001 5.23 18.946 5.44 18.84L9.992 16.46C10.004 16.453 10.018 16.449 10.032 16.45L14.553 18.81C14.772 18.928 15.017 18.989 15.265 18.988C15.344 18.988 15.424 18.981 15.502 18.97C16.316 18.837 16.872 18.075 16.752 17.26L15.872 12.25C15.8671 12.2429 15.8656 12.2424 15.8652 12.2416C15.865 12.2412 15.865 12.2409 15.865 12.24C15.865 12.237 15.872 12.23 15.872 12.23L19.542 8.68C20.084 8.157 20.153 7.314 19.702 6.71C19.457 6.394 19.098 6.186 18.702 6.13L13.64 5.4C13.631 5.4 13.621 5.39 13.611 5.38L11.35 0.84C11.095 0.327 10.573 0.003 10 0C9.834 0 9.668 0.026 9.51 0.08C9.131 0.209 8.818 0.481 8.64 0.84L6.382 5.367C6.382 5.388 6.361 5.397 6.341 5.397L1.291 6.127C0.982 6.179 0.694 6.317 0.461 6.527C0.166 6.816 0 7.213 0 7.627C0.001 8.02 0.159 8.396 0.44 8.67L4.14 12.23C4.148 12.238 4.151 12.249 4.151 12.26L3.26 17.25C3.207 17.576 3.264 17.91 3.421 18.2ZM9.971 1.467L9.981 1.46H10L10.009 1.469C10.018 1.469 10.026 1.471 10.033 1.477C10.039 1.483 10.042 1.491 10.041 1.5L12.301 6.019C12.518 6.464 12.94 6.774 13.43 6.849L18.492 7.585C18.501 7.585 18.51 7.587 18.518 7.591C18.523 7.592 18.527 7.592 18.532 7.591L18.542 7.6L18.532 7.622L14.862 11.181C14.497 11.523 14.334 12.029 14.431 12.52L15.312 17.501L15.292 17.52H15.271C15.267 17.522 15.263 17.522 15.259 17.52C15.249 17.519 15.239 17.515 15.23 17.51H15.221L10.721 15.16C10.505 15.048 10.265 14.988 10.021 14.989C9.77 14.989 9.522 15.052 9.3 15.17L4.771 17.545C4.766 17.546 4.76 17.546 4.755 17.545C4.734 17.545 4.716 17.531 4.711 17.511V17.491L5.591 12.511C5.673 12.024 5.513 11.527 5.161 11.181L1.461 7.631C1.46 7.616 1.462 7.603 1.47 7.59L1.531 7.57L6.561 6.849C7.051 6.773 7.472 6.464 7.69 6.019L9.951 1.489C9.956 1.48 9.962 1.472 9.971 1.467Z" fill="black"></path>
  </symbol>
  
  <symbol fill="none" xmlns="http://www.w3.org/2000/svg" viewBox="0 0 20 20" id="icon-watch">
    <path fill-rule="evenodd" clip-rule="evenodd" d="M10 0C4.47679 0 0 4.47679 0 10C0 15.5232 4.47679 20 10 20C15.5232 20 20 15.5232 20 10C20 4.47679 15.5232 0 10 0ZM10 1.5C14.6948 1.5 18.5 5.30521 18.5 10C18.5 14.6948 14.6948 18.5 10 18.5C5.30521 18.5 1.5 14.6948 1.5 10C1.5 5.30521 5.30521 1.5 10 1.5ZM10.4048 5.74463C10.3551 5.37855 10.0413 5.0964 9.6616 5.0964C9.24739 5.0964 8.9116 5.43219 8.9116 5.8464V10.6934L8.91996 10.8051C8.95309 11.0252 9.08294 11.2215 9.27736 11.3375L13.0474 13.5865L13.1383 13.6328C13.4781 13.7777 13.8812 13.6527 14.0757 13.3266L14.122 13.2357C14.2669 12.8959 14.1419 12.4928 13.8158 12.2983L10.4112 10.2665L10.4116 5.8464L10.4048 5.74463Z" fill="black"></path>
  </symbol>

  <symbol fill="none" xmlns="http://www.w3.org/2000/svg" viewBox="0 0 15 11" id="icon-check-mark">
    <path id="Vector 13" d="M1 5.5L5 9.5L13.5 1" stroke="black" stroke-width="2" stroke-linecap="round"></path>
  </symbol>

  <symbol fill="none" xmlns="http://www.w3.org/2000/svg" viewBox="0 0 20 20" id="icon-help">
    <circle cx="10" cy="10" r="10" fill="#D9D9D9"></circle>
    <path fill-rule="evenodd" clip-rule="evenodd" d="M8.7037 7.19444C8.7037 6.37635 9.37697 5.7037 10.2055 5.7037C11.0219 5.7037 11.6852 6.36648 11.6852 7.17238C11.6852 7.60825 11.4916 8.02161 11.1567 8.30065L10.7139 8.66966C9.71005 9.50621 9.12963 10.7454 9.12963 12.0522V12.5185C9.12963 12.989 9.51101 13.3704 9.98148 13.3704C10.4519 13.3704 10.8333 12.989 10.8333 12.5185V12.0522C10.8333 11.2511 11.1892 10.4913 11.8046 9.97848L12.2474 9.60947C12.9707 9.00674 13.3889 8.11388 13.3889 7.17238C13.3889 5.4151 11.9523 4 10.2055 4C8.44652 4 7 5.42498 7 7.19444V7.40741C7 7.87787 7.38139 8.25926 7.85185 8.25926C8.32232 8.25926 8.7037 7.87787 8.7037 7.40741V7.19444ZM9.98149 15.7037C10.452 15.7037 10.8333 15.3223 10.8333 14.8519C10.8333 14.3814 10.452 14 9.98149 14C9.51103 14 9.12964 14.3814 9.12964 14.8519C9.12964 15.3223 9.51103 15.7037 9.98149 15.7037Z" fill="black"></path>
  </symbol>

  <symbol fill="none" xmlns="http://www.w3.org/2000/svg" viewBox="0 0 20 21" id="icon-play">
    <path fill-rule="evenodd" clip-rule="evenodd" d="M10 0.5C4.47716 0.5 0 4.97716 0 10.5C0 16.0228 4.47716 20.5 10 20.5C15.5228 20.5 20 16.0228 20 10.5C20 4.97716 15.5228 0.5 10 0.5ZM10 1.89535C14.7522 1.89535 18.6047 5.74779 18.6047 10.5C18.6047 15.2522 14.7522 19.1047 10 19.1047C5.24779 19.1047 1.39535 15.2522 1.39535 10.5C1.39535 5.74779 5.24779 1.89535 10 1.89535ZM8.87145 6.55454L8.7674 6.54465C8.57034 6.53789 8.36707 6.58735 8.18787 6.68402C7.95592 6.80819 7.76869 7.00941 7.66488 7.25855C7.61716 7.37387 7.53465 7.72989 7.49754 7.93665C7.40435 8.44479 7.35014 9.22626 7.34096 10.0838L7.33957 10.3723C7.33859 11.2822 7.38883 12.1482 7.48166 12.7189L7.53256 12.9811C7.58323 13.2141 7.65054 13.4626 7.70449 13.5673C7.91027 13.9649 8.32891 14.2104 8.77382 14.1963C8.96356 14.1921 9.36218 14.0596 9.63938 13.9432C10.6376 13.5232 12.3957 12.3463 13.208 11.5528L13.4777 11.272C13.581 11.1617 13.6275 11.1104 13.6668 11.0567C13.8137 10.857 13.8903 10.6158 13.8903 10.3715C13.8903 10.112 13.8048 9.85868 13.6418 9.65198L13.5621 9.55983L13.3385 9.32111C12.5715 8.50364 10.5645 7.15585 9.53924 6.7575C9.31374 6.66839 9.05946 6.58299 8.87145 6.55454ZM8.90601 8.01163L9.03016 8.05666C9.81662 8.36225 11.4854 9.46984 12.1974 10.1515L12.4093 10.3698L12.329 10.4564C11.7353 11.0965 9.98215 12.2852 9.09882 12.6568L8.90694 12.727L8.85847 12.4922C8.78892 12.0646 8.74468 11.3877 8.73634 10.651L8.73492 10.3723C8.7341 9.56877 8.77514 8.81898 8.84583 8.33642L8.87978 8.13757L8.90601 8.01163Z" fill="white"></path>
  </symbol>

  <symbol fill="none" xmlns="http://www.w3.org/2000/svg" viewBox="0 0 100 100" id="icon-discount">
    <mask id="mask0_386_2857" maskUnits="userSpaceOnUse" x="8" y="8" width="84" height="84">
      <path fill-rule="evenodd" clip-rule="evenodd" d="M8.33398 8.33398H91.6787V91.6715H8.33398V8.33398Z" fill="white"></path>
    </mask>
    <g mask="url(#mask0_386_2857)">
      <path fill-rule="evenodd" clip-rule="evenodd" d="M45.6037 83.6476C48.062 86.0476 52.0203 86.0184 54.462 83.5643L57.4703 80.5643C59.8037 78.2351 63.0287 76.9059 66.3162 76.9059H70.6078C74.0828 76.9059 76.9078 74.0809 76.9078 70.6101V66.3226C76.9078 62.9851 78.1995 59.8476 80.5578 57.4851L83.5578 54.4809C84.7787 53.2559 85.4328 51.6684 85.4287 49.9851C85.4245 48.3059 84.762 46.7268 83.5662 45.5351L80.562 42.5268C78.1995 40.1476 76.9078 37.0143 76.9078 33.6768V29.3976C76.9078 25.9226 74.0828 23.0976 70.6078 23.0976H66.3245C62.987 23.0976 59.8495 21.8018 57.487 19.4559L54.4787 16.4434C51.9745 13.9643 47.9787 13.9768 45.5328 16.4393L42.537 19.4434C40.1453 21.8059 37.0078 23.0976 33.6828 23.0976H29.3953C25.9245 23.1018 23.0995 25.9268 23.0995 29.3976V33.6684C23.0995 37.0059 21.8037 40.1434 19.4537 42.5101L16.4953 45.4726C16.4662 45.5059 16.437 45.5309 16.4078 45.5601C13.962 48.0226 13.9745 52.0184 16.437 54.4643L19.4453 57.4726C21.8037 59.8393 23.0995 62.9768 23.0995 66.3143V70.6101C23.0995 74.0809 25.9203 76.9059 29.3953 76.9059H33.6745C37.0162 76.9101 40.1537 78.2059 42.5162 80.5601L45.5203 83.5559C45.5453 83.5851 45.5745 83.6143 45.6037 83.6476ZM49.9953 91.6726C46.7995 91.6726 43.6037 90.4643 41.1578 88.0393C41.1245 88.0059 41.0912 87.9726 41.0578 87.9351L38.0995 84.9809C36.9203 83.8101 35.3453 83.1601 33.6703 83.1559H29.3953C22.4745 83.1559 16.8495 77.5268 16.8495 70.6101V66.3143C16.8495 64.6393 16.1953 63.0684 15.0203 61.8851L12.0245 58.8934C7.15783 54.0518 7.09949 46.1684 11.8787 41.2518C11.9162 41.2143 11.9537 41.1768 11.9912 41.1393L15.0245 38.0976C16.1953 36.9184 16.8495 35.3393 16.8495 33.6684V29.3976C16.8495 22.4809 22.4745 16.8518 29.3912 16.8476H33.6828C35.3537 16.8476 36.9287 16.1934 38.1245 15.0143L41.1037 12.0268C45.9745 7.12261 53.937 7.09761 58.8495 11.9809L61.8953 15.0268C63.0745 16.1976 64.6495 16.8476 66.3245 16.8476H70.6078C77.5287 16.8476 83.1578 22.4768 83.1578 29.3976V33.6768C83.1578 35.3476 83.8078 36.9268 84.987 38.1143L87.9787 41.1101C90.3495 43.4643 91.6662 46.6101 91.6787 49.9643C91.6912 53.3184 90.3953 56.4726 88.0328 58.8518L84.9787 61.8976C83.8078 63.0768 83.1578 64.6476 83.1578 66.3226V70.6101C83.1578 77.5268 77.5287 83.1559 70.612 83.1559H66.3162C64.6662 83.1559 63.0537 83.8226 61.8828 84.9851L58.8912 87.9768C56.4453 90.4393 53.2203 91.6726 49.9953 91.6726Z" fill="#00DFD9"></path>
    </g>
    <path fill-rule="evenodd" clip-rule="evenodd" d="M39.2929 63.8392C38.4929 63.8392 37.6929 63.5351 37.0846 62.9226C35.8637 61.7017 35.8637 59.7267 37.0846 58.5059L58.5012 37.0851C59.7221 35.8642 61.7012 35.8642 62.9221 37.0851C64.1429 38.3059 64.1429 40.2851 62.9221 41.5059L41.5012 62.9226C40.8929 63.5351 40.0929 63.8392 39.2929 63.8392Z" fill="#00DFD9"></path>
    <path fill-rule="evenodd" clip-rule="evenodd" d="M60.4316 64.5799C58.1275 64.5799 56.2441 62.7174 56.2441 60.4132C56.2441 58.1091 58.09 56.2466 60.3941 56.2466H60.4316C62.7358 56.2466 64.5983 58.1091 64.5983 60.4132C64.5983 62.7174 62.7358 64.5799 60.4316 64.5799Z" fill="#00DFD9"></path>
    <path fill-rule="evenodd" clip-rule="evenodd" d="M39.5977 43.7464C37.2935 43.7464 35.4102 41.8839 35.4102 39.5798C35.4102 37.2756 37.256 35.4131 39.5602 35.4131H39.5977C41.9018 35.4131 43.7643 37.2756 43.7643 39.5798C43.7643 41.8839 41.9018 43.7464 39.5977 43.7464Z" fill="#00DFD9"></path>
  </symbol>

  <symbol fill="none" xmlns="http://www.w3.org/2000/svg" viewBox="0 0 100 100" id="icon-password">
    <mask id="mask0_386_2858" maskUnits="userSpaceOnUse" x="8" y="8" width="84" height="84">
      <path fill-rule="evenodd" clip-rule="evenodd" d="M8.33301 8.3335H91.6659V91.6668H8.33301V8.3335Z" fill="white"></path>
    </mask>
    <g mask="url(#mask0_386_2858)">
      <path fill-rule="evenodd" clip-rule="evenodd" d="M31.933 14.5835C21.3955 14.5835 14.583 21.8043 14.583 32.9835V67.0168C14.583 78.196 21.3955 85.4168 31.933 85.4168H68.0497C78.5997 85.4168 85.4163 78.196 85.4163 67.0168V32.9835C85.4163 21.8043 78.5997 14.5835 68.058 14.5835H31.933ZM68.0497 91.6668H31.933C17.8163 91.6668 8.33301 81.7585 8.33301 67.0168V32.9835C8.33301 18.2418 17.8163 8.3335 31.933 8.3335H68.058C82.1788 8.3335 91.6663 18.2418 91.6663 32.9835V67.0168C91.6663 81.7585 82.1788 91.6668 68.0497 91.6668Z" fill="#00DFD9"></path>
    </g>
    <path fill-rule="evenodd" clip-rule="evenodd" d="M36.8275 45.4102C34.2859 45.4102 32.2275 47.4685 32.2275 50.0018C32.2275 52.5352 34.2859 54.5935 36.8192 54.5935C39.3484 54.5935 41.4109 52.5352 41.4109 50.0018C41.4109 47.4727 39.3525 45.4143 36.8275 45.4102ZM36.8192 60.8435C30.84 60.8435 25.9775 55.9768 25.9775 50.0018C25.9775 44.0227 30.84 39.1602 36.8192 39.1602C42.8067 39.1643 47.6609 44.0268 47.6609 50.0018C47.6609 55.9768 42.7984 60.8435 36.8192 60.8435Z" fill="#00DFD9"></path>
    <path fill-rule="evenodd" clip-rule="evenodd" d="M70.8738 60.8439C69.1488 60.8439 67.7488 59.4439 67.7488 57.7189V53.123H44.5488C42.8238 53.123 41.4238 51.7272 41.4238 49.998C41.4238 48.273 42.8238 46.873 44.5488 46.873H70.8738C72.5988 46.873 73.9988 48.273 73.9988 49.998V57.7189C73.9988 59.4439 72.5988 60.8439 70.8738 60.8439Z" fill="#00DFD9"></path>
    <path fill-rule="evenodd" clip-rule="evenodd" d="M59.0889 60.8439C57.3639 60.8439 55.9639 59.4439 55.9639 57.7189V49.998C55.9639 48.273 57.3639 46.873 59.0889 46.873C60.8139 46.873 62.2139 48.273 62.2139 49.998V57.7189C62.2139 59.4439 60.8139 60.8439 59.0889 60.8439Z" fill="#00DFD9"></path>
  </symbol>

  <symbol fill="none" xmlns="http://www.w3.org/2000/svg" viewBox="0 0 100 100" id="icon-shield">
    <mask id="mask0_386_2859" maskUnits="userSpaceOnUse" x="16" y="8" width="72" height="86">
      <path fill-rule="evenodd" clip-rule="evenodd" d="M16.667 8.33496H87.362V93.15H16.667V8.33496Z" fill="white"></path>
    </mask>
    <g mask="url(#mask0_386_2859)">
      <path fill-rule="evenodd" clip-rule="evenodd" d="M52.0145 14.5835C48.4812 14.5835 26.1896 22.4335 23.6187 24.5793C22.8604 25.3418 22.8312 26.6668 22.9937 35.5377C23.0687 39.8127 23.1729 45.621 23.1729 53.6627C23.1729 75.3335 47.0145 84.9543 52.0104 86.7252C57.002 84.946 80.8562 75.271 80.8562 53.6627C80.8562 45.6127 80.9604 39.8002 81.0396 35.5252C81.1979 26.6627 81.1687 25.3377 80.3645 24.5377C77.8437 22.4335 55.5479 14.5835 52.0145 14.5835ZM52.0146 93.1502C51.7104 93.1502 51.4062 93.1085 51.1104 93.0168C49.7146 92.596 16.9229 82.3377 16.9229 53.6627C16.9229 45.6752 16.8187 39.896 16.7437 35.6543C16.5521 25.0585 16.5104 22.8502 19.2479 20.1168C22.5187 16.8377 47.2896 8.3335 52.0146 8.3335C56.7354 8.3335 81.5062 16.8377 84.7854 20.1168C87.5187 22.8502 87.4771 25.0585 87.2854 35.6418C87.2104 39.8835 87.1062 45.6627 87.1062 53.6627C87.1062 82.3377 54.3146 92.596 52.9187 93.0168C52.6229 93.1085 52.3187 93.1502 52.0146 93.1502Z" fill="#00DFD9"></path>
    </g>
    <path fill-rule="evenodd" clip-rule="evenodd" d="M49.0703 60.498C48.2411 60.498 47.4453 60.1688 46.8578 59.5813L38.9745 51.6896C37.7578 50.4688 37.7578 48.4855 38.9786 47.2688C40.1953 46.048 42.1786 46.048 43.3995 47.2688L49.0703 52.948L63.1036 38.9146C64.3245 37.6938 66.2995 37.6938 67.5203 38.9146C68.7411 40.1355 68.7411 42.1146 67.5203 43.3355L51.2786 59.5813C50.6953 60.1688 49.8995 60.498 49.0703 60.498Z" fill="#00DFD9"></path>
  </symbol>

  <symbol fill="none" xmlns="http://www.w3.org/2000/svg" viewBox="0 0 100 100" id="icon-chart">
    <path fill-rule="evenodd" clip-rule="evenodd" d="M29.6719 73.1771C27.9469 73.1771 26.5469 71.7771 26.5469 70.0521V41.4688C26.5469 39.7438 27.9469 38.3438 29.6719 38.3438C31.3969 38.3438 32.7969 39.7438 32.7969 41.4688V70.0521C32.7969 71.7771 31.3969 73.1771 29.6719 73.1771Z" fill="#00DFD9"></path>
    <path fill-rule="evenodd" clip-rule="evenodd" d="M49.1172 73.1727C47.3922 73.1727 45.9922 71.7727 45.9922 70.0477V27.7852C45.9922 26.0602 47.3922 24.6602 49.1172 24.6602C50.8422 24.6602 52.2422 26.0602 52.2422 27.7852V70.0477C52.2422 71.7727 50.8422 73.1727 49.1172 73.1727Z" fill="#00DFD9"></path>
    <path fill-rule="evenodd" clip-rule="evenodd" d="M68.2441 73.1728C66.5191 73.1728 65.1191 71.7728 65.1191 70.0478V56.5728C65.1191 54.8478 66.5191 53.4478 68.2441 53.4478C69.9691 53.4478 71.3691 54.8478 71.3691 56.5728V70.0478C71.3691 71.7728 69.9691 73.1728 68.2441 73.1728Z" fill="#00DFD9"></path>
    <path fill-rule="evenodd" clip-rule="evenodd" d="M29.4337 10.4165C17.8837 10.4165 10.417 18.3207 10.417 30.5623V67.354C10.417 79.5957 17.8837 87.4998 29.4337 87.4998H68.4837C80.0378 87.4998 87.5003 79.5957 87.5003 67.354V30.5623C87.5003 18.3207 80.0378 10.4165 68.4837 10.4165H29.4337ZM68.4837 93.7498H29.4337C14.3212 93.7498 4.16699 83.1415 4.16699 67.354V30.5623C4.16699 14.7748 14.3212 4.1665 29.4337 4.1665H68.4837C83.5962 4.1665 93.7503 14.7748 93.7503 30.5623V67.354C93.7503 83.1415 83.5962 93.7498 68.4837 93.7498Z" fill="#00DFD9"></path>
  </symbol>

  <symbol fill="none" xmlns="http://www.w3.org/2000/svg" viewBox="0 0 100 100" id="icon-work">
    <path fill-rule="evenodd" clip-rule="evenodd" d="M49.9795 72.6109C48.2545 72.6109 46.8545 71.2109 46.8545 69.4859V58.915C46.8545 57.19 48.2545 55.79 49.9795 55.79C51.7045 55.79 53.1045 57.19 53.1045 58.915V69.4859C53.1045 71.2109 51.7045 72.6109 49.9795 72.6109Z" fill="#00DFD9"></path>
    <mask id="mask0_386_2855" maskUnits="userSpaceOnUse" x="8" y="19" width="84" height="44">
      <path fill-rule="evenodd" clip-rule="evenodd" d="M8.33398 19.083H91.6248V62.0455H8.33398V19.083Z" fill="white"></path>
    </mask>
    <g mask="url(#mask0_386_2855)">
      <path fill-rule="evenodd" clip-rule="evenodd" d="M14.584 47.4705C24.484 52.8497 36.9673 55.7955 49.959 55.7955C62.9756 55.7955 75.4715 52.8497 85.3756 47.4705V34.9622C85.3756 29.6497 81.0798 25.333 75.7923 25.333H24.209C18.9007 25.333 14.584 29.633 14.584 34.9205V47.4705ZM49.959 62.0455C35.1881 62.0455 20.9507 58.4705 9.87982 51.9872C8.92148 51.4288 8.33398 50.4038 8.33398 49.2913V34.9205C8.33398 26.1872 15.4548 19.083 24.209 19.083H75.7923C84.5257 19.083 91.6256 26.2038 91.6256 34.9622V49.2913C91.6256 50.4038 91.034 51.4288 90.0798 51.9872C79.009 58.4705 64.759 62.0455 49.959 62.0455Z" fill="#00DFD9"></path>
    </g>
    <mask id="mask1_386_2855" maskUnits="userSpaceOnUse" x="32" y="8" width="36" height="18">
      <path fill-rule="evenodd" clip-rule="evenodd" d="M32.2715 8.33398H67.6882V25.3169H32.2715V8.33398Z" fill="white"></path>
    </mask>
    <g mask="url(#mask1_386_2855)">
      <path fill-rule="evenodd" clip-rule="evenodd" d="M64.5632 25.3168C62.8382 25.3168 61.4382 23.9168 61.4382 22.1918V20.6668C61.4382 17.3127 58.709 14.5835 55.3548 14.5835H44.6048C41.2507 14.5835 38.5215 17.3127 38.5215 20.6668V22.1918C38.5215 23.9168 37.1215 25.3168 35.3965 25.3168C33.6715 25.3168 32.2715 23.9168 32.2715 22.1918V20.6668C32.2715 13.8668 37.8048 8.3335 44.6048 8.3335H55.3548C62.1548 8.3335 67.6882 13.8668 67.6882 20.6668V22.1918C67.6882 23.9168 66.2882 25.3168 64.5632 25.3168Z" fill="#00DFD9"></path>
    </g>
    <path fill-rule="evenodd" clip-rule="evenodd" d="M74.1457 90.5841H25.8124C17.1665 90.5841 9.88735 83.83 9.23319 75.205L8.44152 64.7508C8.31235 63.03 9.60402 61.5258 11.3249 61.3966C13.054 61.3341 14.5457 62.555 14.679 64.28L15.4665 74.73C15.8749 80.1133 20.4165 84.3341 25.8124 84.3341H74.1457C79.5415 84.3341 84.0873 80.1133 84.4915 74.73L85.2832 64.28C85.4165 62.555 86.9457 61.33 88.6373 61.3966C90.3582 61.5258 91.6457 63.03 91.5165 64.7508L90.7249 75.205C90.0707 83.83 82.7915 90.5841 74.1457 90.5841Z" fill="#00DFD9"></path>
  </symbol>
  
  <symbol fill="none" xmlns="http://www.w3.org/2000/svg" viewBox="0 0 100 100" id="icon-star-smoothed">
    <path fill-rule="evenodd" clip-rule="evenodd" d="M48.9577 18.75C48.5785 18.75 47.6452 18.8542 47.1493 19.8458L39.541 35.0583C38.3368 37.4625 36.016 39.1333 33.3327 39.5167L16.2993 41.9708C15.1743 42.1333 14.791 42.9667 14.6743 43.3167C14.5702 43.6542 14.4035 44.5125 15.1785 45.2542L27.4952 57.0875C29.4577 58.975 30.3493 61.6958 29.8827 64.3583L26.9827 81.0667C26.8035 82.1125 27.4577 82.7208 27.7493 82.9292C28.0577 83.1625 28.8827 83.625 29.9035 83.0917L45.1327 75.1958C47.5327 73.9583 50.391 73.9583 52.7827 75.1958L68.0077 83.0875C69.0327 83.6167 69.8577 83.1542 70.1702 82.9292C70.4618 82.7208 71.116 82.1125 70.9368 81.0667L68.0285 64.3583C67.5618 61.6958 68.4535 58.975 70.416 57.0875L82.7327 45.2542C83.5118 44.5125 83.3452 43.65 83.2368 43.3167C83.1243 42.9667 82.741 42.1333 81.616 41.9708L64.5827 39.5167C61.9035 39.1333 59.5827 37.4625 58.3785 35.0542L50.7618 19.8458C50.2702 18.8542 49.3368 18.75 48.9577 18.75ZM28.9452 89.5833C27.2243 89.5833 25.516 89.0417 24.0535 87.975C21.5285 86.125 20.291 83.0708 20.8285 79.9958L23.7285 63.2875C23.8368 62.6667 23.6243 62.0375 23.166 61.5958L10.8493 49.7625C8.58266 47.5917 7.77016 44.3833 8.72849 41.4042C9.69516 38.3917 12.2535 36.2375 15.4077 35.7875L32.441 33.3333C33.0993 33.2417 33.666 32.8375 33.9493 32.2625L41.5618 17.0458C42.966 14.2417 45.7993 12.5 48.9577 12.5C52.116 12.5 54.9493 14.2417 56.3535 17.0458L63.9702 32.2583C64.2577 32.8375 64.8202 33.2417 65.4743 33.3333L82.5077 35.7875C85.6618 36.2375 88.2202 38.3917 89.1868 41.4042C90.1452 44.3833 89.3285 47.5917 87.0618 49.7625L74.7452 61.5958C74.2868 62.0375 74.0785 62.6667 74.1868 63.2833L77.091 79.9958C77.6243 83.075 76.3868 86.1292 73.8577 87.975C71.2952 89.8542 67.9577 90.1083 65.1285 88.6333L49.9077 80.7458C49.3118 80.4375 48.5993 80.4375 48.0035 80.7458L32.7827 88.6375C31.566 89.2708 30.2535 89.5833 28.9452 89.5833Z" fill="#00DFD9"></path>
  </symbol>
  
  <symbol fill="none" xmlns="http://www.w3.org/2000/svg" viewBox="0 0 15 24" id="icon-arrow-btn">
    <path d="M13 22L3 12L13 2" stroke-width="3" stroke-linecap="round"></path>
  </symbol>

  <symbol fill="none" xmlns="http://www.w3.org/2000/svg" viewBox="0 0 20 20" id="icon-search">
    <path fill-rule="evenodd" clip-rule="evenodd" d="M9.61154 0C4.30323 0 0 4.20819 0 9.39926C0 14.5903 4.30323 18.7985 9.61154 18.7985C11.8818 18.7985 13.9682 18.0288 15.6127 16.7417L18.7366 19.7886L18.8197 19.8586C19.1097 20.0685 19.5209 20.0446 19.7834 19.7873C20.0721 19.5042 20.0715 19.0459 19.782 18.7636L16.695 15.7525C18.2649 14.0796 19.2231 11.8488 19.2231 9.39926C19.2231 4.20819 14.9198 0 9.61154 0ZM9.61138 1.44773C14.1021 1.44773 17.7425 5.00775 17.7425 9.39925C17.7425 13.7908 14.1021 17.3508 9.61138 17.3508C5.12069 17.3508 1.48027 13.7908 1.48027 9.39925C1.48027 5.00775 5.12069 1.44773 9.61138 1.44773Z" fill="#BDBDBD"></path>
  </symbol>

  <symbol fill="none" xmlns="http://www.w3.org/2000/svg" viewBox="0 0 80 100" id="icon-employee">
    <path fill-rule="evenodd" clip-rule="evenodd" d="M40.0196 0C25.3495 0 13.457 11.9432 13.457 26.6759C13.457 41.4085 25.3495 53.3517 40.0196 53.3517C54.6898 53.3517 66.5823 41.4085 66.5823 26.6759C66.5823 11.9432 54.6898 0 40.0196 0ZM40.0191 7.23816C50.7085 7.23816 59.3741 15.9406 59.3741 26.6757C59.3741 37.4107 50.7085 46.1132 40.0191 46.1132C29.3296 46.1132 20.6641 37.4107 20.6641 26.6757C20.6641 15.9406 29.3296 7.23816 40.0191 7.23816ZM29.1503 64.1043C25.2617 64.3743 21.331 64.9294 17.454 65.7603C9.97088 67.3017 3.98426 70.3814 1.43619 75.4993C0.475137 77.5008 -0.00805165 79.6438 0.000101475 81.8135C-0.00278171 83.9675 0.476495 86.1133 1.40309 88.0763C3.84972 93.1353 9.13902 95.9982 16.2812 97.5852L17.5606 97.8522C21.3324 98.7032 25.2642 99.2761 29.2223 99.5451C29.5594 99.6439 30.3629 99.7358 31.2398 99.7806L31.9611 99.8076C32.332 99.8162 32.7529 99.8184 33.38 99.8184C39.0692 100.131 44.9671 100.04 50.8376 99.5404C53.966 99.3264 57.1155 98.9173 60.2387 98.3178L62.5754 97.8327C70.2878 96.3112 76.0629 93.4178 78.593 88.082C80.4687 84.1204 80.4687 79.5234 78.5938 75.5636C76.0701 70.2412 70.3685 67.3718 62.5168 65.7544C59.4363 65.0967 56.306 64.6101 53.1534 64.2993L50.8485 64.1043C43.6297 63.4675 36.3691 63.4675 29.1503 64.1043ZM50.2172 71.3147L50.2806 71.3197C53.8988 71.5744 57.495 72.0822 61.0428 72.8396C66.8749 74.0411 70.8328 76.0329 72.0849 78.6736C73.0277 80.6648 73.0277 82.9786 72.0841 84.9716C70.9141 87.439 67.3594 89.3453 62.2218 90.5103L61.0969 90.7485C57.4794 91.5557 53.8951 92.0759 50.2872 92.3232C44.6891 92.7993 39.1242 92.8853 33.5733 92.585L31.6053 92.5513C31.0589 92.5235 30.5985 92.4708 30.1718 92.3851C26.793 92.13 23.7527 91.7266 20.8008 91.1414L19.0382 90.7682C13.188 89.6216 9.19518 87.6212 7.90062 84.9445C7.44763 83.9845 7.20567 82.9012 7.20711 81.8044C7.20306 80.7138 7.44183 79.6547 7.90534 78.689C9.16406 76.1617 13.3954 73.9849 18.9297 72.8449C22.5031 72.0792 26.0975 71.5715 29.7141 71.3199C36.5796 70.7149 43.418 70.7149 50.2172 71.3147Z" fill="white"></path>
  </symbol>
  
  <symbol fill="none" xmlns="http://www.w3.org/2000/svg" viewBox="0 0 130 100" id="icon-company">
    <path fill-rule="evenodd" clip-rule="evenodd" d="M64.8781 0C49.8053 0 37.6983 12.107 37.6983 27.1799C37.6983 42.2572 49.8043 54.3652 64.8781 54.3652C79.952 54.3652 92.058 42.2572 92.058 27.1799C92.058 12.107 79.951 0 64.8781 0ZM64.8782 8.84714C75.0649 8.84714 83.2109 16.9932 83.2109 27.1799C83.2109 37.3713 75.0655 45.518 64.8782 45.518C54.6908 45.518 46.5454 37.3713 46.5454 27.1799C46.5454 16.9932 54.6914 8.84714 64.8782 8.84714ZM31.5687 5.55538C34.0118 5.55538 35.9923 7.53588 35.9923 9.97895C35.9923 12.422 34.0118 14.4025 31.5687 14.4025C24.5596 14.4025 18.875 20.0846 18.875 27.0908C18.875 34.097 24.5596 39.7791 31.5687 39.7791C34.0118 39.7791 35.9923 41.7596 35.9923 44.2026C35.9923 46.6457 34.0118 48.6262 31.5687 48.6262C19.6743 48.6262 10.0279 38.984 10.0279 27.0908C10.0279 15.1976 19.6743 5.55538 31.5687 5.55538ZM119.787 27.0908C119.787 15.1976 110.14 5.55538 98.2459 5.55538C95.8028 5.55538 93.8223 7.53588 93.8223 9.97895C93.8223 12.422 95.8028 14.4025 98.2459 14.4025C105.255 14.4025 110.94 20.0846 110.94 27.0908C110.94 34.097 105.255 39.7791 98.2459 39.7791C95.8028 39.7791 93.8223 41.7596 93.8223 44.2026C93.8223 46.6457 95.8028 48.6262 98.2459 48.6262C110.14 48.6262 119.787 38.984 119.787 27.0908ZM115.355 59.6738C112.523 59.0346 109.496 58.5976 106.418 58.3854C103.981 58.2173 101.869 60.0568 101.701 62.4941C101.533 64.9314 103.372 67.0434 105.81 67.2115C108.443 67.3932 111.024 67.7658 113.534 68.3306C117.436 69.0964 119.981 70.3658 120.612 71.689C121.087 72.6879 121.087 73.8624 120.608 74.8733C119.985 76.1833 117.461 77.4463 113.614 78.2374C111.221 78.7295 109.68 81.0683 110.172 83.4613C110.664 85.8543 113.003 87.3953 115.396 86.9032C121.755 85.5956 126.414 83.2638 128.599 78.6692C130.22 75.2531 130.22 71.2914 128.599 67.8842C126.398 63.2722 121.66 60.9081 115.355 59.6738ZM28.1129 62.4941C27.9448 60.0568 25.8328 58.2173 23.3955 58.3854C20.3179 58.5976 17.2912 59.0346 14.3376 59.6993L13.12 59.9569C7.53079 61.2339 3.26676 63.5808 1.22005 67.8836C-0.406968 71.2878 -0.406968 75.2567 1.22176 78.6728C3.39771 83.2625 8.05588 85.595 14.4178 86.9032C16.8108 87.3953 19.1496 85.8543 19.6417 83.4613C20.1338 81.0683 18.5928 78.7295 16.1998 78.2374C12.3537 77.4465 9.83304 76.1843 9.21183 74.874C8.72785 73.8589 8.72785 72.6915 9.20587 71.6913C9.8369 70.3647 12.3787 69.0961 16.1587 68.3561L18.1241 67.9538C20.0834 67.5914 22.029 67.3478 24.0042 67.2115C26.4415 67.0434 28.281 64.9314 28.1129 62.4941ZM24.9456 81.0816C24.9456 67.0091 39.5017 62.0603 64.8796 62.0603L66.6776 62.0686C90.9949 62.297 104.814 67.2573 104.814 80.9789C104.814 94.3776 91.6044 99.5079 68.4301 99.9661L64.8796 100C39.4435 100 24.9456 95.1384 24.9456 81.0816ZM95.9665 80.9789C95.9665 74.4288 85.4647 70.9074 64.8796 70.9074C44.3147 70.9074 33.7927 74.4847 33.7927 81.0816C33.7927 87.6324 44.2912 91.1531 64.8796 91.1531C85.4383 91.1531 95.9665 87.5726 95.9665 80.9789Z" fill="white"></path>
  </symbol>
</svg>
